<svg width="50" height="146" viewBox="0 0 50 146" fill="none" xmlns="http://www.w3.org/2000/svg">
<path d="M19.5781 49.3945C8.4832 46.9433 0.158963 37.1234 0 25.3291L11.1572 26.3652L20.5586 38.8447L19.5781 49.3945ZM23.1758 10.6865L11.6367 19.3799L0.878906 18.3809C3.70618 8.03322 13.0127 0.362251 24.1689 0L23.1758 10.6865ZM32.502 84.9795C32.5019 85.4693 32.2735 85.7794 31.8164 85.9102L1.68066 95.0732C1.22376 95.2037 0.995282 95.057 0.995117 94.6328V92.1338C0.995117 91.7746 1.22361 91.5453 1.68066 91.4473L8.83496 89.1445V77.2861L1.68066 74.9834C1.2236 74.8527 0.995117 74.6073 0.995117 74.248V71.7988C0.995117 71.3743 1.2236 71.227 1.68066 71.3574L31.8164 80.5205C32.2735 80.6512 32.5019 80.9614 32.502 81.4512V84.9795ZM32.502 100.661C32.502 101.086 32.2736 101.347 31.8164 101.445L5.0127 108.746V108.942L31.8164 116.243C32.2736 116.341 32.502 116.603 32.502 117.027V119.478C32.5019 119.967 32.2572 120.163 31.7676 120.065L1.68066 111.393C1.22361 111.262 0.995169 111 0.995117 110.608V107.129C0.995246 106.705 1.22367 106.427 1.68066 106.296L31.7676 97.623C32.2573 97.5253 32.502 97.7382 32.502 98.2607V100.661ZM32.502 144.896C32.502 145.354 32.2735 145.583 31.8164 145.583H1.68066C1.22363 145.583 0.995117 145.354 0.995117 144.896V142.691C0.995242 142.234 1.22376 142.006 1.68066 142.006H28.6797L25.3477 136.175C25.0211 135.587 25.1523 135.293 25.7402 135.293H27.7002C28.1902 135.293 28.5497 135.489 28.7783 135.881L32.0615 141.564C32.3555 142.087 32.502 142.512 32.502 142.839V144.896ZM11.873 78.0703V88.3604L28.8271 83.3135V83.1172L11.873 78.0703ZM49.5059 29.9287C47.3109 40.8722 37.9708 49.2303 26.5586 49.9346L27.7754 36.8379L38.3271 28.8887L49.5059 29.9287ZM37.1309 21.748L30.0518 12.3506L31.1289 0.744141C41.3307 3.31747 49.037 12.1608 49.9111 22.9365L37.1309 21.748Z" fill="#762C2A"/>
</svg>
