<svg width="55" height="355" viewBox="0 0 55 355" fill="none" xmlns="http://www.w3.org/2000/svg">
<rect width="6" height="22" fill="#512231" fill-opacity="0.8"/>
<rect x="26" y="185" width="4" height="22" fill="#512231" fill-opacity="0.8"/>
<rect x="36" y="222" width="4" height="22" fill="#512231" fill-opacity="0.7"/>
<rect x="15" y="185" width="6" height="22" fill="#512231" fill-opacity="0.8"/>
<rect x="2" y="185" width="7" height="22" fill="#512231" fill-opacity="0.8"/>
<rect x="37" y="338" width="7" height="17" fill="#512231" fill-opacity="0.7"/>
<rect x="51" y="340" width="4" height="15" fill="#512231" fill-opacity="0.7"/>
<rect x="2" y="259" width="9" height="22" fill="#512231" fill-opacity="0.8"/>
<rect x="2" y="296" width="9" height="22" fill="#512231" fill-opacity="0.8"/>
<rect x="46" y="222" width="6" height="22" fill="#512231" fill-opacity="0.7"/>
<rect x="2" y="333" width="6" height="22" fill="#512231" fill-opacity="0.8"/>
<rect x="7" y="222" width="4" height="22" fill="#512231" fill-opacity="0.8"/>
<rect x="21" y="259" width="7" height="22" fill="#512231" fill-opacity="0.8"/>
<rect x="14" y="259" width="3" height="22" fill="#512231" fill-opacity="0.8"/>
<rect x="42" y="296" width="3" height="22" fill="#512231" fill-opacity="0.7"/>
<rect x="49" y="111" width="6" height="22" fill="#512231" fill-opacity="0.7"/>
<rect x="41" y="111" width="6" height="22" fill="#512231" fill-opacity="0.7"/>
<rect x="15" y="111" width="19" height="22" fill="#512231" fill-opacity="0.8"/>
<rect x="3" y="111" width="6" height="22" fill="#512231" fill-opacity="0.8"/>
<rect x="48" y="148" width="6" height="22" fill="#512231" fill-opacity="0.7"/>
<rect x="40" y="148" width="6" height="22" fill="#512231" fill-opacity="0.7"/>
<rect x="14" y="148" width="19" height="22" fill="#512231" fill-opacity="0.8"/>
<rect x="15" y="222" width="19" height="22" fill="#512231" fill-opacity="0.8"/>
<rect x="36" y="188" width="16" height="19" fill="#512231" fill-opacity="0.7"/>
<rect x="33" y="262" width="19" height="19" fill="#512231" fill-opacity="0.8"/>
<rect x="14" y="336" width="19" height="19" fill="#512231" fill-opacity="0.8"/>
<rect x="15" y="296" width="20" height="22" fill="#512231" fill-opacity="0.8"/>
<rect x="2" y="148" width="6" height="22" fill="#512231" fill-opacity="0.8"/>
<rect x="42" y="74" width="6" height="22" fill="#512231" fill-opacity="0.7"/>
<rect x="15" y="74" width="19" height="22" fill="#512231" fill-opacity="0.8"/>
<rect x="3" y="74" width="6" height="22" fill="#512231" fill-opacity="0.8"/>
<rect x="42" y="42" width="10" height="17" fill="#512231" fill-opacity="0.7"/>
<rect x="28" y="37" width="6" height="22" fill="#512231" fill-opacity="0.8"/>
<rect x="15" y="37" width="11" height="22" fill="#512231" fill-opacity="0.8"/>
<rect x="3" y="37" width="6" height="22" fill="#512231" fill-opacity="0.8"/>
<rect x="18" width="17" height="22" fill="#512231" fill-opacity="0.8"/>
<rect x="38" width="14" height="22" fill="#512231" fill-opacity="0.7"/>
</svg>
