<svg width="130" height="774" viewBox="0 0 130 774" fill="none" xmlns="http://www.w3.org/2000/svg">
<path d="M15.578 65.032H20.662C24.134 65.032 25.87 63.234 25.87 59.638V38.496C25.87 34.9 24.134 33.102 20.662 33.102H15.578C12.1473 33.102 10.432 34.9 10.432 38.496V59.638C10.432 63.234 12.1473 65.032 15.578 65.032ZM21.22 69H15.02C12.2093 69 9.97733 68.194 8.324 66.582C6.712 64.97 5.906 62.7173 5.906 59.824V38.31C5.906 35.458 6.712 33.226 8.324 31.614C9.97733 29.9607 12.2093 29.134 15.02 29.134H21.22C24.0307 29.134 26.242 29.9607 27.854 31.614C29.5073 33.226 30.334 35.458 30.334 38.31V59.824C30.334 62.7173 29.5073 64.97 27.854 66.582C26.242 68.194 24.0307 69 21.22 69ZM41.2169 37.69V35.21C41.2169 34.59 41.4649 34.1353 41.9609 33.846L49.1529 29.692C49.8143 29.32 50.3516 29.134 50.7649 29.134H53.3689C53.9476 29.134 54.2369 29.4233 54.2369 30.002V68.132C54.2369 68.7107 53.9476 69 53.3689 69H50.5789C50.0003 69 49.7109 68.7107 49.7109 68.132V33.97L42.3329 38.186C41.5889 38.5993 41.2169 38.434 41.2169 37.69ZM77.6894 65.032H82.7734C86.2454 65.032 87.9814 63.234 87.9814 59.638V38.496C87.9814 34.9 86.2454 33.102 82.7734 33.102H77.6894C74.2587 33.102 72.5434 34.9 72.5434 38.496V59.638C72.5434 63.234 74.2587 65.032 77.6894 65.032ZM83.3314 69H77.1314C74.3207 69 72.0887 68.194 70.4354 66.582C68.8234 64.97 68.0174 62.7173 68.0174 59.824V38.31C68.0174 35.458 68.8234 33.226 70.4354 31.614C72.0887 29.9607 74.3207 29.134 77.1314 29.134H83.3314C86.1421 29.134 88.3534 29.9607 89.9654 31.614C91.6187 33.226 92.4454 35.458 92.4454 38.31V59.824C92.4454 62.7173 91.6187 64.97 89.9654 66.582C88.3534 68.194 86.1421 69 83.3314 69ZM103.328 37.69V35.21C103.328 34.59 103.576 34.1353 104.072 33.846L111.264 29.692C111.926 29.32 112.463 29.134 112.876 29.134H115.48C116.059 29.134 116.348 29.4233 116.348 30.002V68.132C116.348 68.7107 116.059 69 115.48 69H112.69C112.112 69 111.822 68.7107 111.822 68.132V33.97L104.444 38.186C103.7 38.5993 103.328 38.434 103.328 37.69Z" fill="#622324"/>
<path d="M10.046 147.69V145.21C10.046 144.59 10.294 144.135 10.79 143.846L17.982 139.692C18.6433 139.32 19.1807 139.134 19.594 139.134H22.198C22.7767 139.134 23.066 139.423 23.066 140.002V178.132C23.066 178.711 22.7767 179 22.198 179H19.408C18.8293 179 18.54 178.711 18.54 178.132V143.97L11.162 148.186C10.418 148.599 10.046 148.434 10.046 147.69ZM41.1865 147.69V145.21C41.1865 144.59 41.4345 144.135 41.9305 143.846L49.1225 139.692C49.7838 139.32 50.3211 139.134 50.7345 139.134H53.3385C53.9171 139.134 54.2065 139.423 54.2065 140.002V178.132C54.2065 178.711 53.9171 179 53.3385 179H50.5485C49.9698 179 49.6805 178.711 49.6805 178.132V143.97L42.3025 148.186C41.5585 148.599 41.1865 148.434 41.1865 147.69Z" fill="#622324"/>
<path d="M73.046 202.69V200.21C73.046 199.59 73.294 199.135 73.79 198.846L80.982 194.692C81.6433 194.32 82.1807 194.134 82.594 194.134H85.198C85.7767 194.134 86.066 194.423 86.066 195.002V233.132C86.066 233.711 85.7767 234 85.198 234H82.408C81.8293 234 81.54 233.711 81.54 233.132V198.97L74.162 203.186C73.418 203.599 73.046 203.434 73.046 202.69ZM104.186 202.69V200.21C104.186 199.59 104.434 199.135 104.93 198.846L112.122 194.692C112.784 194.32 113.321 194.134 113.734 194.134H116.338C116.917 194.134 117.206 194.423 117.206 195.002V233.132C117.206 233.711 116.917 234 116.338 234H113.548C112.97 234 112.68 233.711 112.68 233.132V198.97L105.302 203.186C104.558 203.599 104.186 203.434 104.186 202.69Z" fill="#622324"/>
<path d="M10.046 92.69V90.21C10.046 89.59 10.294 89.1353 10.79 88.846L17.982 84.692C18.6433 84.32 19.1807 84.134 19.594 84.134H22.198C22.7767 84.134 23.066 84.4233 23.066 85.002V123.132C23.066 123.711 22.7767 124 22.198 124H19.408C18.8293 124 18.54 123.711 18.54 123.132V88.97L11.162 93.186C10.418 93.5993 10.046 93.434 10.046 92.69ZM44.6585 120.032H49.7425C53.2145 120.032 54.9505 118.234 54.9505 114.638V93.496C54.9505 89.9 53.2145 88.102 49.7425 88.102H44.6585C41.2278 88.102 39.5125 89.9 39.5125 93.496V114.638C39.5125 118.234 41.2278 120.032 44.6585 120.032ZM50.3005 124H44.1005C41.2898 124 39.0578 123.194 37.4045 121.582C35.7925 119.97 34.9865 117.717 34.9865 114.824V93.31C34.9865 90.458 35.7925 88.226 37.4045 86.614C39.0578 84.9607 41.2898 84.134 44.1005 84.134H50.3005C53.1111 84.134 55.3225 84.9607 56.9345 86.614C58.5878 88.226 59.4145 90.458 59.4145 93.31V114.824C59.4145 117.717 58.5878 119.97 56.9345 121.582C55.3225 123.194 53.1111 124 50.3005 124Z" fill="#622324"/>
<path d="M76.578 175.032H81.662C85.134 175.032 86.87 173.234 86.87 169.638V148.496C86.87 144.9 85.134 143.102 81.662 143.102H76.578C73.1473 143.102 71.432 144.9 71.432 148.496V169.638C71.432 173.234 73.1473 175.032 76.578 175.032ZM82.22 179H76.02C73.2093 179 70.9773 178.194 69.324 176.582C67.712 174.97 66.906 172.717 66.906 169.824V148.31C66.906 145.458 67.712 143.226 69.324 141.614C70.9773 139.961 73.2093 139.134 76.02 139.134H82.22C85.0307 139.134 87.242 139.961 88.854 141.614C90.5073 143.226 91.334 145.458 91.334 148.31V169.824C91.334 172.717 90.5073 174.97 88.854 176.582C87.242 178.194 85.0307 179 82.22 179ZM106.929 175.032H112.013C115.485 175.032 117.221 173.234 117.221 169.638V148.496C117.221 144.9 115.485 143.102 112.013 143.102H106.929C103.498 143.102 101.783 144.9 101.783 148.496V169.638C101.783 173.234 103.498 175.032 106.929 175.032ZM112.571 179H106.371C103.56 179 101.328 178.194 99.6749 176.582C98.0629 174.97 97.2569 172.717 97.2569 169.824V148.31C97.2569 145.458 98.0629 143.226 99.6749 141.614C101.328 139.961 103.56 139.134 106.371 139.134H112.571C115.382 139.134 117.593 139.961 119.205 141.614C120.858 143.226 121.685 145.458 121.685 148.31V169.824C121.685 172.717 120.858 174.97 119.205 176.582C117.593 178.194 115.382 179 112.571 179Z" fill="#622324"/>
<path d="M13.578 230.032H18.662C22.134 230.032 23.87 228.234 23.87 224.638V203.496C23.87 199.9 22.134 198.102 18.662 198.102H13.578C10.1473 198.102 8.432 199.9 8.432 203.496V224.638C8.432 228.234 10.1473 230.032 13.578 230.032ZM19.22 234H13.02C10.2093 234 7.97733 233.194 6.324 231.582C4.712 229.97 3.906 227.717 3.906 224.824V203.31C3.906 200.458 4.712 198.226 6.324 196.614C7.97733 194.961 10.2093 194.134 13.02 194.134H19.22C22.0307 194.134 24.242 194.961 25.854 196.614C27.5073 198.226 28.334 200.458 28.334 203.31V224.824C28.334 227.717 27.5073 229.97 25.854 231.582C24.242 233.194 22.0307 234 19.22 234ZM43.9289 230.032H49.0129C52.4849 230.032 54.2209 228.234 54.2209 224.638V203.496C54.2209 199.9 52.4849 198.102 49.0129 198.102H43.9289C40.4983 198.102 38.7829 199.9 38.7829 203.496V224.638C38.7829 228.234 40.4983 230.032 43.9289 230.032ZM49.5709 234H43.3709C40.5603 234 38.3283 233.194 36.6749 231.582C35.0629 229.97 34.2569 227.717 34.2569 224.824V203.31C34.2569 200.458 35.0629 198.226 36.6749 196.614C38.3283 194.961 40.5603 194.134 43.3709 194.134H49.5709C52.3816 194.134 54.5929 194.961 56.2049 196.614C57.8583 198.226 58.6849 200.458 58.6849 203.31V224.824C58.6849 227.717 57.8583 229.97 56.2049 231.582C54.5929 233.194 52.3816 234 49.5709 234Z" fill="#622324"/>
<path d="M44.578 283.032H49.662C53.134 283.032 54.87 281.234 54.87 277.638V256.496C54.87 252.9 53.134 251.102 49.662 251.102H44.578C41.1473 251.102 39.432 252.9 39.432 256.496V277.638C39.432 281.234 41.1473 283.032 44.578 283.032ZM50.22 287H44.02C41.2093 287 38.9773 286.194 37.324 284.582C35.712 282.97 34.906 280.717 34.906 277.824V256.31C34.906 253.458 35.712 251.226 37.324 249.614C38.9773 247.961 41.2093 247.134 44.02 247.134H50.22C53.0307 247.134 55.242 247.961 56.854 249.614C58.5073 251.226 59.334 253.458 59.334 256.31V277.824C59.334 280.717 58.5073 282.97 56.854 284.582C55.242 286.194 53.0307 287 50.22 287ZM74.9289 283.032H80.0129C83.4849 283.032 85.2209 281.234 85.2209 277.638V256.496C85.2209 252.9 83.4849 251.102 80.0129 251.102H74.9289C71.4983 251.102 69.7829 252.9 69.7829 256.496V277.638C69.7829 281.234 71.4983 283.032 74.9289 283.032ZM80.5709 287H74.3709C71.5603 287 69.3283 286.194 67.6749 284.582C66.0629 282.97 65.2569 280.717 65.2569 277.824V256.31C65.2569 253.458 66.0629 251.226 67.6749 249.614C69.3283 247.961 71.5603 247.134 74.3709 247.134H80.5709C83.3816 247.134 85.5929 247.961 87.2049 249.614C88.8583 251.226 89.6849 253.458 89.6849 256.31V277.824C89.6849 280.717 88.8583 282.97 87.2049 284.582C85.5929 286.194 83.3816 287 80.5709 287Z" fill="#622324"/>
<path d="M10.046 255.69V253.21C10.046 252.59 10.294 252.135 10.79 251.846L17.982 247.692C18.6433 247.32 19.1807 247.134 19.594 247.134H22.198C22.7767 247.134 23.066 247.423 23.066 248.002V286.132C23.066 286.711 22.7767 287 22.198 287H19.408C18.8293 287 18.54 286.711 18.54 286.132V251.97L11.162 256.186C10.418 256.599 10.046 256.434 10.046 255.69Z" fill="#622324"/>
<path d="M104.046 255.69V253.21C104.046 252.59 104.294 252.135 104.79 251.846L111.982 247.692C112.643 247.32 113.181 247.134 113.594 247.134H116.198C116.777 247.134 117.066 247.423 117.066 248.002V286.132C117.066 286.711 116.777 287 116.198 287H113.408C112.829 287 112.54 286.711 112.54 286.132V251.97L105.162 256.186C104.418 256.599 104.046 256.434 104.046 255.69Z" fill="#622324"/>
<path d="M73.046 92.69V90.21C73.046 89.59 73.294 89.1353 73.79 88.846L80.982 84.692C81.6433 84.32 82.1807 84.134 82.594 84.134H85.198C85.7767 84.134 86.066 84.4233 86.066 85.002V123.132C86.066 123.711 85.7767 124 85.198 124H82.408C81.8293 124 81.54 123.711 81.54 123.132V88.97L74.162 93.186C73.418 93.5993 73.046 93.434 73.046 92.69ZM103.566 92.69V90.21C103.566 89.59 103.814 89.1353 104.31 88.846L111.502 84.692C112.164 84.32 112.701 84.134 113.114 84.134H115.718C116.297 84.134 116.586 84.4233 116.586 85.002V123.132C116.586 123.711 116.297 124 115.718 124H112.928C112.35 124 112.06 123.711 112.06 123.132V88.97L104.682 93.186C103.938 93.5993 103.566 93.434 103.566 92.69Z" fill="#622324"/>
<path d="M15.578 404.032H20.662C24.134 404.032 25.87 402.234 25.87 398.638V377.496C25.87 373.9 24.134 372.102 20.662 372.102H15.578C12.1473 372.102 10.432 373.9 10.432 377.496V398.638C10.432 402.234 12.1473 404.032 15.578 404.032ZM21.22 408H15.02C12.2093 408 9.97733 407.194 8.324 405.582C6.712 403.97 5.906 401.717 5.906 398.824V377.31C5.906 374.458 6.712 372.226 8.324 370.614C9.97733 368.961 12.2093 368.134 15.02 368.134H21.22C24.0307 368.134 26.242 368.961 27.854 370.614C29.5073 372.226 30.334 374.458 30.334 377.31V398.824C30.334 401.717 29.5073 403.97 27.854 405.582C26.242 407.194 24.0307 408 21.22 408ZM41.2169 376.69V374.21C41.2169 373.59 41.4649 373.135 41.9609 372.846L49.1529 368.692C49.8143 368.32 50.3516 368.134 50.7649 368.134H53.3689C53.9476 368.134 54.2369 368.423 54.2369 369.002V407.132C54.2369 407.711 53.9476 408 53.3689 408H50.5789C50.0003 408 49.7109 407.711 49.7109 407.132V372.97L42.3329 377.186C41.5889 377.599 41.2169 377.434 41.2169 376.69ZM77.6894 404.032H82.7734C86.2454 404.032 87.9814 402.234 87.9814 398.638V377.496C87.9814 373.9 86.2454 372.102 82.7734 372.102H77.6894C74.2587 372.102 72.5434 373.9 72.5434 377.496V398.638C72.5434 402.234 74.2587 404.032 77.6894 404.032ZM83.3314 408H77.1314C74.3207 408 72.0887 407.194 70.4354 405.582C68.8234 403.97 68.0174 401.717 68.0174 398.824V377.31C68.0174 374.458 68.8234 372.226 70.4354 370.614C72.0887 368.961 74.3207 368.134 77.1314 368.134H83.3314C86.1421 368.134 88.3534 368.961 89.9654 370.614C91.6187 372.226 92.4454 374.458 92.4454 377.31V398.824C92.4454 401.717 91.6187 403.97 89.9654 405.582C88.3534 407.194 86.1421 408 83.3314 408ZM103.328 376.69V374.21C103.328 373.59 103.576 373.135 104.072 372.846L111.264 368.692C111.926 368.32 112.463 368.134 112.876 368.134H115.48C116.059 368.134 116.348 368.423 116.348 369.002V407.132C116.348 407.711 116.059 408 115.48 408H112.69C112.112 408 111.822 407.711 111.822 407.132V372.97L104.444 377.186C103.7 377.599 103.328 377.434 103.328 376.69Z" fill="#622324"/>
<path d="M10.046 486.69V484.21C10.046 483.59 10.294 483.135 10.79 482.846L17.982 478.692C18.6433 478.32 19.1807 478.134 19.594 478.134H22.198C22.7767 478.134 23.066 478.423 23.066 479.002V517.132C23.066 517.711 22.7767 518 22.198 518H19.408C18.8293 518 18.54 517.711 18.54 517.132V482.97L11.162 487.186C10.418 487.599 10.046 487.434 10.046 486.69ZM41.1865 486.69V484.21C41.1865 483.59 41.4345 483.135 41.9305 482.846L49.1225 478.692C49.7838 478.32 50.3211 478.134 50.7345 478.134H53.3385C53.9171 478.134 54.2065 478.423 54.2065 479.002V517.132C54.2065 517.711 53.9171 518 53.3385 518H50.5485C49.9698 518 49.6805 517.711 49.6805 517.132V482.97L42.3025 487.186C41.5585 487.599 41.1865 487.434 41.1865 486.69Z" fill="#622324"/>
<path d="M73.046 541.69V539.21C73.046 538.59 73.294 538.135 73.79 537.846L80.982 533.692C81.6433 533.32 82.1807 533.134 82.594 533.134H85.198C85.7767 533.134 86.066 533.423 86.066 534.002V572.132C86.066 572.711 85.7767 573 85.198 573H82.408C81.8293 573 81.54 572.711 81.54 572.132V537.97L74.162 542.186C73.418 542.599 73.046 542.434 73.046 541.69ZM105.798 569.032H110.882C114.354 569.032 116.09 567.234 116.09 563.638V542.496C116.09 538.9 114.354 537.102 110.882 537.102H105.798C102.368 537.102 100.652 538.9 100.652 542.496V563.638C100.652 567.234 102.368 569.032 105.798 569.032ZM111.44 573H105.24C102.43 573 100.198 572.194 98.5445 570.582C96.9325 568.97 96.1265 566.717 96.1265 563.824V542.31C96.1265 539.458 96.9325 537.226 98.5445 535.614C100.198 533.961 102.43 533.134 105.24 533.134H111.44C114.251 533.134 116.462 533.961 118.074 535.614C119.728 537.226 120.554 539.458 120.554 542.31V563.824C120.554 566.717 119.728 568.97 118.074 570.582C116.462 572.194 114.251 573 111.44 573Z" fill="#622324"/>
<path d="M10.046 431.69V429.21C10.046 428.59 10.294 428.135 10.79 427.846L17.982 423.692C18.6433 423.32 19.1807 423.134 19.594 423.134H22.198C22.7767 423.134 23.066 423.423 23.066 424.002V462.132C23.066 462.711 22.7767 463 22.198 463H19.408C18.8293 463 18.54 462.711 18.54 462.132V427.97L11.162 432.186C10.418 432.599 10.046 432.434 10.046 431.69ZM44.6585 459.032H49.7425C53.2145 459.032 54.9505 457.234 54.9505 453.638V432.496C54.9505 428.9 53.2145 427.102 49.7425 427.102H44.6585C41.2278 427.102 39.5125 428.9 39.5125 432.496V453.638C39.5125 457.234 41.2278 459.032 44.6585 459.032ZM50.3005 463H44.1005C41.2898 463 39.0578 462.194 37.4045 460.582C35.7925 458.97 34.9865 456.717 34.9865 453.824V432.31C34.9865 429.458 35.7925 427.226 37.4045 425.614C39.0578 423.961 41.2898 423.134 44.1005 423.134H50.3005C53.1111 423.134 55.3225 423.961 56.9345 425.614C58.5878 427.226 59.4145 429.458 59.4145 432.31V453.824C59.4145 456.717 58.5878 458.97 56.9345 460.582C55.3225 462.194 53.1111 463 50.3005 463Z" fill="#622324"/>
<path d="M74.578 514.032H79.662C83.134 514.032 84.87 512.234 84.87 508.638V487.496C84.87 483.9 83.134 482.102 79.662 482.102H74.578C71.1473 482.102 69.432 483.9 69.432 487.496V508.638C69.432 512.234 71.1473 514.032 74.578 514.032ZM80.22 518H74.02C71.2093 518 68.9773 517.194 67.324 515.582C65.712 513.97 64.906 511.717 64.906 508.824V487.31C64.906 484.458 65.712 482.226 67.324 480.614C68.9773 478.961 71.2093 478.134 74.02 478.134H80.22C83.0307 478.134 85.242 478.961 86.854 480.614C88.5073 482.226 89.334 484.458 89.334 487.31V508.824C89.334 511.717 88.5073 513.97 86.854 515.582C85.242 517.194 83.0307 518 80.22 518ZM103.317 486.69V484.21C103.317 483.59 103.565 483.135 104.061 482.846L111.253 478.692C111.914 478.32 112.452 478.134 112.865 478.134H115.469C116.048 478.134 116.337 478.423 116.337 479.002V517.132C116.337 517.711 116.048 518 115.469 518H112.679C112.1 518 111.811 517.711 111.811 517.132V482.97L104.433 487.186C103.689 487.599 103.317 487.434 103.317 486.69Z" fill="#622324"/>
<path d="M13.578 569.032H18.662C22.134 569.032 23.87 567.234 23.87 563.638V542.496C23.87 538.9 22.134 537.102 18.662 537.102H13.578C10.1473 537.102 8.432 538.9 8.432 542.496V563.638C8.432 567.234 10.1473 569.032 13.578 569.032ZM19.22 573H13.02C10.2093 573 7.97733 572.194 6.324 570.582C4.712 568.97 3.906 566.717 3.906 563.824V542.31C3.906 539.458 4.712 537.226 6.324 535.614C7.97733 533.961 10.2093 533.134 13.02 533.134H19.22C22.0307 533.134 24.242 533.961 25.854 535.614C27.5073 537.226 28.334 539.458 28.334 542.31V563.824C28.334 566.717 27.5073 568.97 25.854 570.582C24.242 572.194 22.0307 573 19.22 573ZM43.9289 569.032H49.0129C52.4849 569.032 54.2209 567.234 54.2209 563.638V542.496C54.2209 538.9 52.4849 537.102 49.0129 537.102H43.9289C40.4983 537.102 38.7829 538.9 38.7829 542.496V563.638C38.7829 567.234 40.4983 569.032 43.9289 569.032ZM49.5709 573H43.3709C40.5603 573 38.3283 572.194 36.6749 570.582C35.0629 568.97 34.2569 566.717 34.2569 563.824V542.31C34.2569 539.458 35.0629 537.226 36.6749 535.614C38.3283 533.961 40.5603 533.134 43.3709 533.134H49.5709C52.3816 533.134 54.5929 533.961 56.2049 535.614C57.8583 537.226 58.6849 539.458 58.6849 542.31V563.824C58.6849 566.717 57.8583 568.97 56.2049 570.582C54.5929 572.194 52.3816 573 49.5709 573Z" fill="#622324"/>
<path d="M44.578 622.032H49.662C53.134 622.032 54.87 620.234 54.87 616.638V595.496C54.87 591.9 53.134 590.102 49.662 590.102H44.578C41.1473 590.102 39.432 591.9 39.432 595.496V616.638C39.432 620.234 41.1473 622.032 44.578 622.032ZM50.22 626H44.02C41.2093 626 38.9773 625.194 37.324 623.582C35.712 621.97 34.906 619.717 34.906 616.824V595.31C34.906 592.458 35.712 590.226 37.324 588.614C38.9773 586.961 41.2093 586.134 44.02 586.134H50.22C53.0307 586.134 55.242 586.961 56.854 588.614C58.5073 590.226 59.334 592.458 59.334 595.31V616.824C59.334 619.717 58.5073 621.97 56.854 623.582C55.242 625.194 53.0307 626 50.22 626ZM74.9289 622.032H80.0129C83.4849 622.032 85.2209 620.234 85.2209 616.638V595.496C85.2209 591.9 83.4849 590.102 80.0129 590.102H74.9289C71.4983 590.102 69.7829 591.9 69.7829 595.496V616.638C69.7829 620.234 71.4983 622.032 74.9289 622.032ZM80.5709 626H74.3709C71.5603 626 69.3283 625.194 67.6749 623.582C66.0629 621.97 65.2569 619.717 65.2569 616.824V595.31C65.2569 592.458 66.0629 590.226 67.6749 588.614C69.3283 586.961 71.5603 586.134 74.3709 586.134H80.5709C83.3816 586.134 85.5929 586.961 87.2049 588.614C88.8583 590.226 89.6849 592.458 89.6849 595.31V616.824C89.6849 619.717 88.8583 621.97 87.2049 623.582C85.5929 625.194 83.3816 626 80.5709 626Z" fill="#622324"/>
<path d="M10.046 594.69V592.21C10.046 591.59 10.294 591.135 10.79 590.846L17.982 586.692C18.6433 586.32 19.1807 586.134 19.594 586.134H22.198C22.7767 586.134 23.066 586.423 23.066 587.002V625.132C23.066 625.711 22.7767 626 22.198 626H19.408C18.8293 626 18.54 625.711 18.54 625.132V590.97L11.162 595.186C10.418 595.599 10.046 595.434 10.046 594.69Z" fill="#622324"/>
<path d="M104.046 594.69V592.21C104.046 591.59 104.294 591.135 104.79 590.846L111.982 586.692C112.643 586.32 113.181 586.134 113.594 586.134H116.198C116.777 586.134 117.066 586.423 117.066 587.002V625.132C117.066 625.711 116.777 626 116.198 626H113.408C112.829 626 112.54 625.711 112.54 625.132V590.97L105.162 595.186C104.418 595.599 104.046 595.434 104.046 594.69Z" fill="#622324"/>
<path d="M73.046 431.69V429.21C73.046 428.59 73.294 428.135 73.79 427.846L80.982 423.692C81.6433 423.32 82.1807 423.134 82.594 423.134H85.198C85.7767 423.134 86.066 423.423 86.066 424.002V462.132C86.066 462.711 85.7767 463 85.198 463H82.408C81.8293 463 81.54 462.711 81.54 462.132V427.97L74.162 432.186C73.418 432.599 73.046 432.434 73.046 431.69ZM103.566 431.69V429.21C103.566 428.59 103.814 428.135 104.31 427.846L111.502 423.692C112.164 423.32 112.701 423.134 113.114 423.134H115.718C116.297 423.134 116.586 423.423 116.586 424.002V462.132C116.586 462.711 116.297 463 115.718 463H112.928C112.35 463 112.06 462.711 112.06 462.132V427.97L104.682 432.186C103.938 432.599 103.566 432.434 103.566 431.69Z" fill="#622324"/>
<rect x="12" y="767" width="34" height="7" fill="#FF6961"/>
<rect x="12" y="339" width="34" height="7" fill="#FF6961"/>
<rect x="12" width="34" height="7" fill="#FF6961"/>
</svg>
