<svg width="29" height="525" viewBox="0 0 29 525" fill="none" xmlns="http://www.w3.org/2000/svg">
<path d="M29 525H0V496H29V525ZM4.14258 520.857H24.8574V500.143H4.14258V520.857ZM29 401H0V372H29V401ZM4.14258 396.857H24.8574V376.143H4.14258V396.857ZM4.14258 272.857H10V277H0V268H4.14258V272.857ZM29 277H20V272.857H24.8574V268H29V277ZM10 252.143H4.14258V258H0V248H10V252.143ZM29 258H24.8574V252.143H20V248H29V258ZM29 153H0V124H29V153ZM4.14258 148.857H24.8574V128.143H4.14258V148.857ZM29 29H0V0H29V29ZM4.14258 24.8574H24.8574V4.14258H4.14258V24.8574Z" fill="#5A2629"/>
</svg>
