<svg width="18" height="94" viewBox="0 0 18 94" fill="none" xmlns="http://www.w3.org/2000/svg">
<path d="M17.4338 19.1374V15.7344L0.574167 15.7344V19.1374H17.4338Z" fill="#382227"/>
<path d="M6.5859 33.4695C7.14342 32.9687 7.62175 32.3863 8.00454 31.7421C8.21759 33.2219 8.73726 34.3339 9.56355 35.0782C10.3898 35.8224 11.4342 36.1938 12.6967 36.1923C13.6343 36.2091 14.5567 35.9541 15.3526 35.4582C16.096 35.0048 16.665 34.3141 16.9677 33.4976C17.2729 32.6785 17.4248 31.3692 17.4233 29.5698V22.3945H0.574456V25.7976H7.61371V26.4885C7.6384 27.0657 7.57432 27.6432 7.4237 28.2008C7.2963 28.5614 6.70897 29.8548 4.35536 31.3728C2.00174 32.8908 8.80332e-05 34.059 8.80332e-05 34.059L0.574456 37.5505L3.85872 35.4128C5.16941 34.5902 6.06119 33.9467 6.5859 33.4695ZM10.3042 28.3174V25.7976H14.5817V28.4535C14.5817 29.8354 14.5623 30.6624 14.5234 30.9388C14.4637 31.4316 14.2292 31.8867 13.8627 32.2214C13.4765 32.5368 12.9874 32.6983 12.4894 32.6749C12.0422 32.692 11.6005 32.5714 11.224 32.3294C10.8869 32.0994 10.6361 31.7636 10.5115 31.375C10.3733 30.969 10.3042 29.9499 10.3042 28.3174Z" fill="#382227"/>
<path d="M9.88291 68.2913C10.3018 67.4995 10.7063 66.2759 11.0964 64.6205C11.4865 62.965 11.8622 61.9221 12.2236 61.4917C12.3443 61.3349 12.4993 61.2078 12.6767 61.1203C12.8541 61.0327 13.0492 60.9869 13.2471 60.9864C13.4529 60.9813 13.6567 61.028 13.8398 61.1223C14.0228 61.2167 14.1791 61.3556 14.2943 61.5262C14.7003 62.0848 14.9032 62.8592 14.9032 63.8496C14.9032 64.8083 14.7139 65.5281 14.3353 66.0089C13.9568 66.4897 13.3334 66.7992 12.4654 66.9374L12.6144 70.3404C14.1619 70.2886 15.4006 69.7301 16.3305 68.6648C17.2605 67.5996 17.724 66.0053 17.7211 63.882C17.7502 62.7475 17.5504 61.6188 17.1338 60.5632C16.791 59.7051 16.1953 58.9716 15.4258 58.4601C14.7135 57.9832 13.8754 57.7292 13.0182 57.7302C12.3733 57.7232 11.7349 57.8588 11.1485 58.1272C10.5621 58.3956 10.0422 58.7901 9.62595 59.2827C8.96521 60.0169 8.40884 61.2966 7.95683 63.1219C7.60415 64.5399 7.35871 65.4489 7.22051 65.8491C7.08724 66.313 6.83661 66.7347 6.49284 67.0734C6.2071 67.3088 5.84591 67.4331 5.47581 67.4232C5.15867 67.4186 4.84686 67.341 4.56453 67.1964C4.2822 67.0519 4.03693 66.8443 3.84772 66.5898C3.38419 66.0341 3.15243 65.2078 3.15243 64.1109C3.15243 63.0759 3.41298 62.2539 3.93409 61.645C4.45519 61.0361 5.27212 60.6316 6.38487 60.4315L6.06098 57.1191C4.17377 57.3423 2.73425 58.0246 1.74242 59.1661C0.750586 60.3077 0.258271 61.9451 0.265468 64.0785C0.265468 65.5425 0.4706 66.7661 0.880863 67.7493C1.25317 68.6866 1.91023 69.4833 2.75944 70.0273C3.57121 70.5517 4.51804 70.8286 5.48445 70.8241C6.42535 70.8564 7.35631 70.6229 8.1706 70.1504C8.8999 69.698 9.49194 69.0552 9.88291 68.2913Z" fill="#382227"/>
<path d="M10.7984 83.7783V77.1083H17.4338V73.7031H0.574167V77.1083H7.94596V83.7783H0.574167V87.1814H17.4338V83.7783H10.7984Z" fill="#382227"/>
<path d="M17.4338 94.0007V90.5977H0.574167V94.0007H17.4338Z" fill="#382227"/>
<path d="M17.7209 47.1651C17.7214 45.4397 17.2101 43.7529 16.2518 42.318C15.2935 40.8832 13.9313 39.7647 12.3373 39.1041C10.7433 38.4435 8.98924 38.2705 7.2969 38.6068C5.60457 38.9432 4.04999 39.7738 2.82977 40.9937C1.60955 42.2137 0.778503 43.768 0.44173 45.4603C0.104957 47.1525 0.277586 48.9067 0.937784 50.5008C1.59798 52.0949 2.71609 53.4575 4.15071 54.4161C5.58533 55.3748 7.27201 55.8865 8.99745 55.8865C11.3107 55.8865 13.5292 54.9677 15.1651 53.3322C16.801 51.6967 17.7204 49.4784 17.7209 47.1651ZM12.055 49.7562C12.055 50.8575 10.686 51.7493 8.99745 51.7493C7.30889 51.7493 5.94207 50.8575 5.94207 49.7562C5.94207 48.655 7.31105 47.7611 8.99745 47.7611C10.6838 47.7611 12.055 48.6507 12.055 49.7519V49.7562ZM8.99745 41.4214C9.84214 41.4199 10.6768 41.605 11.4416 41.9635C12.2064 42.3221 12.8825 42.8452 13.4216 43.4955C13.9607 44.1458 14.3495 44.9072 14.56 45.7252C14.7706 46.5433 14.7978 47.3977 14.6397 48.2275C14.1409 46.2409 11.8067 44.7359 8.99745 44.7359C6.18822 44.7359 3.8562 46.2474 3.35741 48.2275C3.19932 47.3979 3.22646 46.5436 3.43691 45.7258C3.64735 44.9079 4.03589 44.1466 4.57474 43.4963C5.1136 42.8461 5.78947 42.3229 6.55402 41.9642C7.31858 41.6055 8.15294 41.4202 8.99745 41.4214Z" fill="#382227"/>
<path d="M17.4338 13.733V9.15751L11.1698 3.40519L17.4338 3.40519V0L0.574167 0V3.40519H5.67007L6.81665 3.40519L8.48578 5.03976L0.574167 9.67358V14.0785L10.8675 7.38474L17.4338 13.733Z" fill="#382227"/>
</svg>
