<svg width="19" height="290" viewBox="0 0 19 290" fill="none" xmlns="http://www.w3.org/2000/svg">
<path d="M0 1.68198V0.405984C0 0.135318 0.135333 -1.55196e-05 0.406 -1.55196e-05L18.241 -1.55196e-05C18.5117 -1.55196e-05 18.647 0.135318 18.647 0.405984V1.59498C18.647 1.82698 18.5697 1.98165 18.415 2.05898L4.35 10.063V10.179H18.241C18.5117 10.179 18.647 10.3143 18.647 10.585V11.861C18.647 12.1317 18.5117 12.267 18.241 12.267L0.406 12.267C0.135333 12.267 0 12.1317 0 11.861V10.788C0 10.5753 0.125667 10.3723 0.377 10.179L14.297 2.20398V2.08798L0.406 2.08798C0.135333 2.08798 0 1.95265 0 1.68198ZM0 24.3326V20.8526C0 19.5186 0.377 18.4649 1.131 17.6916C1.885 16.9376 2.93867 16.5606 4.292 16.5606H14.355C15.7083 16.5606 16.762 16.9376 17.516 17.6916C18.27 18.4649 18.647 19.5186 18.647 20.8526V24.3326C18.647 25.6666 18.27 26.7106 17.516 27.4646C16.762 28.2379 15.7083 28.6246 14.355 28.6246H12.934C12.6633 28.6246 12.528 28.4892 12.528 28.2186V26.9136C12.528 26.6429 12.6633 26.5076 12.934 26.5076H14.268C15.95 26.5076 16.791 25.6956 16.791 24.0716V21.0846C16.791 19.4799 15.95 18.6776 14.268 18.6776H4.379C2.697 18.6776 1.856 19.4799 1.856 21.0846V24.0716C1.856 25.6956 2.697 26.5076 4.379 26.5076H5.713C5.98367 26.5076 6.119 26.6429 6.119 26.9136V28.2186C6.119 28.4892 5.98367 28.6246 5.713 28.6246H4.292C2.93867 28.6246 1.885 28.2379 1.131 27.4646C0.377 26.7106 0 25.6666 0 24.3326ZM5.539 47.5303H16.936L5.539 40.9763L5.539 47.5303ZM0 49.1253V47.9073C0 47.656 0.135333 47.5303 0.406 47.5303H3.683L3.683 39.4683C3.683 39.0623 3.886 38.8593 4.292 38.8593H4.988C5.31667 38.8593 5.60667 38.927 5.858 39.0623L18.067 46.1383C18.4537 46.3123 18.647 46.6023 18.647 47.0083V48.8933C18.647 49.3186 18.444 49.5313 18.038 49.5313H5.539V51.6773C5.539 51.948 5.41333 52.0833 5.162 52.0833H4.118C3.828 52.0833 3.683 51.948 3.683 51.6773V49.5313H0.406C0.135333 49.5313 0 49.396 0 49.1253ZM1.856 59.228V61.78C1.856 63.404 2.668 64.216 4.292 64.216H6.032C7.69467 64.216 8.526 63.404 8.526 61.78V59.228C8.526 57.604 7.69467 56.792 6.032 56.792H4.292C2.668 56.792 1.856 57.604 1.856 59.228ZM10.237 59.228V61.78C10.237 63.404 11.078 64.216 12.76 64.216H14.355C15.979 64.216 16.791 63.404 16.791 61.78V59.228C16.791 57.604 15.979 56.792 14.355 56.792H12.76C11.078 56.792 10.237 57.604 10.237 59.228ZM0 62.041V58.967C0 57.633 0.357667 56.589 1.073 55.835C1.80767 55.081 2.83233 54.704 4.147 54.704H5.916C7.656 54.704 8.816 55.3806 9.396 56.734C9.918 55.3806 11.078 54.704 12.876 54.704H14.5C15.834 54.704 16.8587 55.081 17.574 55.835C18.2893 56.589 18.647 57.633 18.647 58.967V62.041C18.647 63.375 18.2893 64.419 17.574 65.173C16.8587 65.927 15.834 66.304 14.5 66.304H12.876C11.9867 66.304 11.2327 66.1203 10.614 65.753C10.0147 65.3856 9.60867 64.8926 9.396 64.274C8.83533 65.6273 7.66567 66.304 5.887 66.304H4.147C2.83233 66.304 1.80767 65.927 1.073 65.173C0.357667 64.419 0 63.375 0 62.041ZM1.856 74.4926V77.0446C1.856 78.6686 2.668 79.4806 4.292 79.4806H6.032C7.69467 79.4806 8.526 78.6686 8.526 77.0446V74.4926C8.526 72.8686 7.69467 72.0566 6.032 72.0566H4.292C2.668 72.0566 1.856 72.8686 1.856 74.4926ZM10.237 74.4926V77.0446C10.237 78.6686 11.078 79.4806 12.76 79.4806H14.355C15.979 79.4806 16.791 78.6686 16.791 77.0446V74.4926C16.791 72.8686 15.979 72.0566 14.355 72.0566H12.76C11.078 72.0566 10.237 72.8686 10.237 74.4926ZM0 77.3056V74.2316C0 72.8976 0.357667 71.8536 1.073 71.0996C1.80767 70.3456 2.83233 69.9686 4.147 69.9686H5.916C7.656 69.9686 8.816 70.6453 9.396 71.9986C9.918 70.6453 11.078 69.9686 12.876 69.9686H14.5C15.834 69.9686 16.8587 70.3456 17.574 71.0996C18.2893 71.8536 18.647 72.8976 18.647 74.2316V77.3056C18.647 78.6396 18.2893 79.6836 17.574 80.4376C16.8587 81.1916 15.834 81.5686 14.5 81.5686H12.876C11.9867 81.5686 11.2327 81.3849 10.614 81.0176C10.0147 80.6503 9.60867 80.1573 9.396 79.5386C8.83533 80.8919 7.66567 81.5686 5.887 81.5686H4.147C2.83233 81.5686 1.80767 81.1916 1.073 80.4376C0.357667 79.6836 0 78.6396 0 77.3056ZM5.539 93.3243H16.936L5.539 86.7703V93.3243ZM0 94.9193V93.7013C0 93.4499 0.135333 93.3243 0.406 93.3243H3.683V85.2623C3.683 84.8563 3.886 84.6533 4.292 84.6533H4.988C5.31667 84.6533 5.60667 84.7209 5.858 84.8563L18.067 91.9322C18.4537 92.1063 18.647 92.3963 18.647 92.8023V94.6873C18.647 95.1126 18.444 95.3253 18.038 95.3253H5.539V97.4713C5.539 97.7419 5.41333 97.8773 5.162 97.8773H4.118C3.828 97.8773 3.683 97.7419 3.683 97.4713V95.3253H0.406C0.135333 95.3253 0 95.1899 0 94.9193ZM1.856 112.385V114.763C1.856 116.387 2.697 117.199 4.379 117.199H14.268C15.95 117.199 16.791 116.387 16.791 114.763V112.385C16.791 110.781 15.95 109.978 14.268 109.978H4.379C2.697 109.978 1.856 110.781 1.856 112.385ZM0 115.024V112.124C0 110.81 0.377 109.766 1.131 108.992C1.885 108.238 2.93867 107.861 4.292 107.861H14.355C15.689 107.861 16.733 108.238 17.487 108.992C18.2603 109.766 18.647 110.81 18.647 112.124V115.024C18.647 116.339 18.2603 117.373 17.487 118.127C16.733 118.901 15.689 119.287 14.355 119.287H4.292C2.93867 119.287 1.885 118.901 1.131 118.127C0.377 117.373 0 116.339 0 115.024ZM0.406 122.754H3.016C4.31133 122.754 5.37467 123.295 6.206 124.378L10.614 129.975C11.3487 130.941 12.2573 131.425 13.34 131.425H14.384C16.0273 131.425 16.849 130.593 16.849 128.931V127.162C16.849 125.538 16.0273 124.726 14.384 124.726H13.195C12.905 124.726 12.76 124.59 12.76 124.32V123.015C12.76 122.763 12.905 122.638 13.195 122.638H14.413C15.747 122.638 16.7813 123.015 17.516 123.769C18.27 124.523 18.647 125.567 18.647 126.901V129.221C18.647 130.555 18.27 131.599 17.516 132.353C16.7813 133.107 15.747 133.484 14.413 133.484H13.224C11.716 133.484 10.4883 132.884 9.541 131.686L5.046 126.002C4.54333 125.364 3.93433 125.045 3.219 125.045H1.885V133.136C1.885 133.406 1.74967 133.542 1.479 133.542H0.406C0.135333 133.542 0 133.406 0 133.136V123.16C0 122.889 0.135333 122.754 0.406 122.754ZM10.208 143.153V141.007C10.208 140.195 9.96633 139.663 9.483 139.412C9.019 139.16 8.787 138.909 8.787 138.658V137.324C8.787 137.053 8.92233 136.918 9.193 136.918H18.241C18.5117 136.918 18.647 137.053 18.647 137.324L18.647 146.923C18.647 147.213 18.5117 147.358 18.241 147.358H17.081C16.8103 147.358 16.675 147.213 16.675 146.923L16.675 139.035H10.498C11.4647 139.402 11.948 140.224 11.948 141.5V143.588C11.948 144.902 11.5903 145.917 10.875 146.633C10.1597 147.367 9.135 147.735 7.801 147.735H4.292C2.93867 147.735 1.885 147.358 1.131 146.604C0.377 145.85 0 144.806 0 143.472L0 141.094C0 139.76 0.377 138.706 1.131 137.933C1.885 137.179 2.93867 136.802 4.292 136.802H5.191C5.481 136.802 5.626 136.937 5.626 137.208V138.513C5.626 138.783 5.481 138.919 5.191 138.919H4.321C2.639 138.919 1.798 139.721 1.798 141.326L1.798 143.211C1.798 144.854 2.639 145.676 4.321 145.676H7.54C8.44867 145.676 9.11567 145.473 9.541 145.067C9.98567 144.661 10.208 144.023 10.208 143.153ZM0.406 150.932H3.016C4.31133 150.932 5.37467 151.474 6.206 152.556L10.614 158.153C11.3487 159.12 12.2573 159.603 13.34 159.603H14.384C16.0273 159.603 16.849 158.772 16.849 157.109V155.34C16.849 153.716 16.0273 152.904 14.384 152.904H13.195C12.905 152.904 12.76 152.769 12.76 152.498V151.193C12.76 150.942 12.905 150.816 13.195 150.816H14.413C15.747 150.816 16.7813 151.193 17.516 151.947C18.27 152.701 18.647 153.745 18.647 155.079V157.399C18.647 158.733 18.27 159.777 17.516 160.531C16.7813 161.285 15.747 161.662 14.413 161.662H13.224C11.716 161.662 10.4883 161.063 9.541 159.864L5.046 154.18C4.54333 153.542 3.93433 153.223 3.219 153.223H1.885V161.314C1.885 161.585 1.74967 161.72 1.479 161.72H0.406C0.135333 161.72 0 161.585 0 161.314V151.338C0 151.068 0.135333 150.932 0.406 150.932ZM10.208 178.695V176.549C10.208 175.737 9.96633 175.205 9.483 174.954C9.019 174.702 8.787 174.451 8.787 174.2V172.866C8.787 172.595 8.92233 172.46 9.193 172.46H18.241C18.5117 172.46 18.647 172.595 18.647 172.866V182.465C18.647 182.755 18.5117 182.9 18.241 182.9H17.081C16.8103 182.9 16.675 182.755 16.675 182.465V174.577H10.498C11.4647 174.944 11.948 175.766 11.948 177.042V179.13C11.948 180.444 11.5903 181.459 10.875 182.175C10.1597 182.909 9.135 183.277 7.801 183.277H4.292C2.93867 183.277 1.885 182.9 1.131 182.146C0.377 181.392 0 180.348 0 179.014V176.636C0 175.302 0.377 174.248 1.131 173.475C1.885 172.721 2.93867 172.344 4.292 172.344H5.191C5.481 172.344 5.626 172.479 5.626 172.75V174.055C5.626 174.325 5.481 174.461 5.191 174.461H4.321C2.639 174.461 1.798 175.263 1.798 176.868V178.753C1.798 180.396 2.639 181.218 4.321 181.218H7.54C8.44867 181.218 9.11567 181.015 9.541 180.609C9.98567 180.203 10.208 179.565 10.208 178.695ZM10.208 192.883V190.737C10.208 189.925 9.96633 189.394 9.483 189.142C9.019 188.891 8.787 188.64 8.787 188.388V187.054C8.787 186.784 8.92233 186.648 9.193 186.648H18.241C18.5117 186.648 18.647 186.784 18.647 187.054V196.653C18.647 196.943 18.5117 197.088 18.241 197.088H17.081C16.8103 197.088 16.675 196.943 16.675 196.653V188.765H10.498C11.4647 189.133 11.948 189.954 11.948 191.23V193.318C11.948 194.633 11.5903 195.648 10.875 196.363C10.1597 197.098 9.135 197.465 7.801 197.465H4.292C2.93867 197.465 1.885 197.088 1.131 196.334C0.377 195.58 0 194.536 0 193.202V190.824C0 189.49 0.377 188.437 1.131 187.663C1.885 186.909 2.93867 186.532 4.292 186.532H5.191C5.481 186.532 5.626 186.668 5.626 186.938V188.243C5.626 188.514 5.481 188.649 5.191 188.649H4.321C2.639 188.649 1.798 189.452 1.798 191.056V192.941C1.798 194.585 2.639 195.406 4.321 195.406H7.54C8.44867 195.406 9.11567 195.203 9.541 194.797C9.98567 194.391 10.208 193.753 10.208 192.883ZM1.856 205.361V207.913C1.856 209.537 2.668 210.349 4.292 210.349H6.032C7.69467 210.349 8.526 209.537 8.526 207.913V205.361C8.526 203.737 7.69467 202.925 6.032 202.925H4.292C2.668 202.925 1.856 203.737 1.856 205.361ZM10.237 205.361V207.913C10.237 209.537 11.078 210.349 12.76 210.349H14.355C15.979 210.349 16.791 209.537 16.791 207.913V205.361C16.791 203.737 15.979 202.925 14.355 202.925H12.76C11.078 202.925 10.237 203.737 10.237 205.361ZM0 208.174V205.1C0 203.766 0.357667 202.722 1.073 201.968C1.80767 201.214 2.83233 200.837 4.147 200.837H5.916C7.656 200.837 8.816 201.513 9.396 202.867C9.918 201.513 11.078 200.837 12.876 200.837H14.5C15.834 200.837 16.8587 201.214 17.574 201.968C18.2893 202.722 18.647 203.766 18.647 205.1V208.174C18.647 209.508 18.2893 210.552 17.574 211.306C16.8587 212.06 15.834 212.437 14.5 212.437H12.876C11.9867 212.437 11.2327 212.253 10.614 211.886C10.0147 211.518 9.60867 211.025 9.396 210.407C8.83533 211.76 7.66567 212.437 5.887 212.437H4.147C2.83233 212.437 1.80767 212.06 1.073 211.306C0.357667 210.552 0 209.508 0 208.174ZM5.539 224.192H16.936L5.539 217.638V224.192ZM0 225.787V224.569C0 224.318 0.135333 224.192 0.406 224.192H3.683V216.13C3.683 215.724 3.886 215.521 4.292 215.521H4.988C5.31667 215.521 5.60667 215.589 5.858 215.724L18.067 222.8C18.4537 222.974 18.647 223.264 18.647 223.67V225.555C18.647 225.981 18.444 226.193 18.038 226.193H5.539V228.339C5.539 228.61 5.41333 228.745 5.162 228.745H4.118C3.828 228.745 3.683 228.61 3.683 228.339V226.193H0.406C0.135333 226.193 0 226.058 0 225.787ZM1.856 243.253V245.631C1.856 247.255 2.697 248.067 4.379 248.067H14.268C15.95 248.067 16.791 247.255 16.791 245.631V243.253C16.791 241.649 15.95 240.846 14.268 240.846H4.379C2.697 240.846 1.856 241.649 1.856 243.253ZM0 245.892V242.992C0 241.678 0.377 240.634 1.131 239.86C1.885 239.106 2.93867 238.729 4.292 238.729H14.355C15.689 238.729 16.733 239.106 17.487 239.86C18.2603 240.634 18.647 241.678 18.647 242.992V245.892C18.647 247.207 18.2603 248.241 17.487 248.995C16.733 249.769 15.689 250.155 14.355 250.155H4.292C2.93867 250.155 1.885 249.769 1.131 248.995C0.377 248.241 0 247.207 0 245.892ZM5.539 261.887H16.936L5.539 255.333V261.887ZM0 263.482V262.264C0 262.012 0.135333 261.887 0.406 261.887H3.683V253.825C3.683 253.419 3.886 253.216 4.292 253.216H4.988C5.31667 253.216 5.60667 253.283 5.858 253.419L18.067 260.495C18.4537 260.669 18.647 260.959 18.647 261.365V263.25C18.647 263.675 18.444 263.888 18.038 263.888H5.539V266.034C5.539 266.304 5.41333 266.44 5.162 266.44H4.118C3.828 266.44 3.683 266.304 3.683 266.034V263.888H0.406C0.135333 263.888 0 263.752 0 263.482ZM14.645 268.19H15.805C16.095 268.19 16.3077 268.306 16.443 268.538L18.386 271.902C18.56 272.212 18.647 272.463 18.647 272.656V273.874C18.647 274.145 18.5117 274.28 18.241 274.28H0.406C0.135333 274.28 0 274.145 0 273.874V272.569C0 272.299 0.135333 272.163 0.406 272.163H16.385L14.413 268.712C14.2197 268.364 14.297 268.19 14.645 268.19ZM10.208 284.641V282.495C10.208 281.683 9.96633 281.151 9.483 280.9C9.019 280.649 8.787 280.397 8.787 280.146V278.812C8.787 278.541 8.92233 278.406 9.193 278.406H18.241C18.5117 278.406 18.647 278.541 18.647 278.812V288.411C18.647 288.701 18.5117 288.846 18.241 288.846H17.081C16.8103 288.846 16.675 288.701 16.675 288.411V280.523H10.498C11.4647 280.89 11.948 281.712 11.948 282.988V285.076C11.948 286.391 11.5903 287.406 10.875 288.121C10.1597 288.856 9.135 289.223 7.801 289.223H4.292C2.93867 289.223 1.885 288.846 1.131 288.092C0.377 287.338 0 286.294 0 284.96V282.582C0 281.248 0.377 280.194 1.131 279.421C1.885 278.667 2.93867 278.29 4.292 278.29H5.191C5.481 278.29 5.626 278.425 5.626 278.696V280.001C5.626 280.272 5.481 280.407 5.191 280.407H4.321C2.639 280.407 1.798 281.209 1.798 282.814V284.699C1.798 286.342 2.639 287.164 4.321 287.164H7.54C8.44867 287.164 9.11567 286.961 9.541 286.555C9.98567 286.149 10.208 285.511 10.208 284.641Z" fill="#382227"/>
</svg>
