<svg width="51" height="77" viewBox="0 0 51 77" fill="none" xmlns="http://www.w3.org/2000/svg">
<path d="M48.2354 43H43.0312C47.271 44.8511 50.2354 49.0781 50.2354 54C50.2354 60.6274 44.8628 66 38.2354 66V61C42.1013 61 45.2354 57.866 45.2354 54C45.2354 50.134 42.1013 47 38.2354 47V43H29.2354V48.8711C31.0284 49.9951 32.2354 52.0944 32.2354 54.5C32.2354 57.5286 30.323 60.0723 27.7354 60.7939L27.7363 61.999L34.8965 61.9951L26.2451 77L17.5762 62.0049L24.7363 62.001L24.7354 60.7939C22.1477 60.0723 20.2354 57.5286 20.2354 54.5C20.2354 52.0944 21.4423 49.9951 23.2354 48.8711V43H14.8057V64.5098C14.8057 64.8364 14.642 65 14.3154 65H13.0205C12.7638 65 12.5185 64.8483 12.2852 64.5449L2.66016 47.7451H2.52051V64.5098C2.52051 64.8364 2.35694 65 2.03027 65H0.490234C0.163646 65 0 64.8364 0 64.5098V42.9854C0 42.6587 0.163646 42.4952 0.490234 42.4951H1.92578C2.20554 42.4952 2.39207 42.5888 2.48535 42.7754L12.1455 59.75H12.2852V43H3.23535V34H48.2354V43ZM26.2354 51C24.5785 51 23.2354 52.567 23.2354 54.5C23.2354 56.433 24.5785 58 26.2354 58C27.8922 58 29.2354 56.433 29.2354 54.5C29.2354 52.567 27.8922 51 26.2354 51ZM34.8955 15H27.7354V29H24.7354V15H17.5752L26.2354 0L34.8955 15Z" fill="#542225"/>
</svg>
