<svg width="537" height="133" viewBox="0 0 537 133" fill="none" xmlns="http://www.w3.org/2000/svg">
<path d="M521.32 16.8V15.2C521.32 14.8 521.48 14.5067 521.8 14.32L526.44 11.64C526.867 11.4 527.213 11.28 527.48 11.28H529.16C529.533 11.28 529.72 11.4667 529.72 11.84V36.44C529.72 36.8133 529.533 37 529.16 37H527.36C526.987 37 526.8 36.8133 526.8 36.44V14.4L522.04 17.12C521.56 17.3867 521.32 17.28 521.32 16.8Z" fill="#B2423E"/>
<path d="M528.68 70.36V54.64L519.64 70.36H528.68ZM530.88 78H529.2C528.853 78 528.68 77.8133 528.68 77.44V72.92H517.56C517 72.92 516.72 72.64 516.72 72.08V71.12C516.72 70.6667 516.813 70.2667 517 69.92L526.76 53.08C527 52.5467 527.4 52.28 527.96 52.28H530.56C531.147 52.28 531.44 52.56 531.44 53.12V70.36H534.4C534.773 70.36 534.96 70.5333 534.96 70.88V72.32C534.96 72.72 534.773 72.92 534.4 72.92H531.44V77.44C531.44 77.8133 531.253 78 530.88 78Z" fill="#B2423E"/>
<path d="M521.32 98.8V97.2C521.32 96.8 521.48 96.5067 521.8 96.32L526.44 93.64C526.867 93.4 527.213 93.28 527.48 93.28H529.16C529.533 93.28 529.72 93.4667 529.72 93.84V118.44C529.72 118.813 529.533 119 529.16 119H527.36C526.987 119 526.8 118.813 526.8 118.44V96.4L522.04 99.12C521.56 99.3867 521.32 99.28 521.32 98.8Z" fill="#B2423E"/>
<path d="M8.76 34.44H12.04C14.28 34.44 15.4 33.28 15.4 30.96V17.32C15.4 15 14.28 13.84 12.04 13.84H8.76C6.54667 13.84 5.44 15 5.44 17.32V30.96C5.44 33.28 6.54667 34.44 8.76 34.44ZM12.4 37H8.4C6.58667 37 5.14667 36.48 4.08 35.44C3.04 34.4 2.52 32.9467 2.52 31.08V17.2C2.52 15.36 3.04 13.92 4.08 12.88C5.14667 11.8133 6.58667 11.28 8.4 11.28H12.4C14.2133 11.28 15.64 11.8133 16.68 12.88C17.7467 13.92 18.28 15.36 18.28 17.2V31.08C18.28 32.9467 17.7467 34.4 16.68 35.44C15.64 36.48 14.2133 37 12.4 37ZM26.2213 31.6V36.44C26.2213 36.8133 26.0479 37 25.7013 37H23.6613C23.3146 37 23.1413 36.8133 23.1413 36.44V31.6C23.1413 31.2533 23.3146 31.08 23.6613 31.08H25.7013C26.0479 31.08 26.2213 31.2533 26.2213 31.6ZM42.2347 29.36V13.64L33.1947 29.36H42.2347ZM44.4347 37H42.7547C42.408 37 42.2347 36.8133 42.2347 36.44V31.92H31.1147C30.5547 31.92 30.2747 31.64 30.2747 31.08V30.12C30.2747 29.6667 30.368 29.2667 30.5547 28.92L40.3147 12.08C40.5547 11.5467 40.9547 11.28 41.5147 11.28H44.1147C44.7014 11.28 44.9947 11.56 44.9947 12.12V29.36H47.9547C48.328 29.36 48.5147 29.5333 48.5147 29.88V31.32C48.5147 31.72 48.328 31.92 47.9547 31.92H44.9947V36.44C44.9947 36.8133 44.808 37 44.4347 37ZM58.1294 34.44H61.2094C63.4494 34.44 64.5694 33.28 64.5694 30.96V27.44C64.5694 25.12 63.4494 23.96 61.2094 23.96H54.7694V30.96C54.7694 33.28 55.8894 34.44 58.1294 34.44ZM61.5694 37H57.7694C55.9294 37 54.476 36.48 53.4094 35.44C52.3694 34.3733 51.8494 32.92 51.8494 31.08V17.2C51.8494 15.36 52.3694 13.92 53.4094 12.88C54.476 11.8133 55.9294 11.28 57.7694 11.28H65.5294C65.9027 11.28 66.0894 11.4667 66.0894 11.84V13.32C66.0894 13.6667 65.9027 13.84 65.5294 13.84H58.1294C55.8894 13.84 54.7694 15 54.7694 17.32V21.4H61.5694C63.4094 21.4 64.8494 21.92 65.8894 22.96C66.9294 24 67.4494 25.4533 67.4494 27.32V31.08C67.4494 32.9467 66.9294 34.4 65.8894 35.44C64.8494 36.48 63.4094 37 61.5694 37ZM80.9247 22.92H77.9647C76.8447 22.92 76.1114 23.2533 75.7647 23.92C75.418 24.56 75.0714 24.88 74.7247 24.88H72.8847C72.5114 24.88 72.3247 24.6933 72.3247 24.32V11.84C72.3247 11.4667 72.5114 11.28 72.8847 11.28H86.1247C86.5247 11.28 86.7247 11.4667 86.7247 11.84V13.44C86.7247 13.8133 86.5247 14 86.1247 14H75.2447V22.52C75.7514 21.1867 76.8847 20.52 78.6447 20.52H81.5247C83.338 20.52 84.738 21.0133 85.7247 22C86.738 22.9867 87.2447 24.4 87.2447 26.24V31.08C87.2447 32.9467 86.7247 34.4 85.6847 35.44C84.6447 36.48 83.2047 37 81.3647 37H78.0847C76.2447 37 74.7914 36.48 73.7247 35.44C72.6847 34.4 72.1647 32.9467 72.1647 31.08V29.84C72.1647 29.44 72.3514 29.24 72.7247 29.24H74.5247C74.898 29.24 75.0847 29.44 75.0847 29.84V31.04C75.0847 33.36 76.1914 34.52 78.4047 34.52H81.0047C83.2714 34.52 84.4047 33.36 84.4047 31.04V26.6C84.4047 25.3467 84.1247 24.4267 83.5647 23.84C83.0047 23.2267 82.1247 22.92 80.9247 22.92ZM100.495 22.92H97.535C96.415 22.92 95.6817 23.2533 95.335 23.92C94.9883 24.56 94.6417 24.88 94.295 24.88H92.455C92.0817 24.88 91.895 24.6933 91.895 24.32V11.84C91.895 11.4667 92.0817 11.28 92.455 11.28H105.695C106.095 11.28 106.295 11.4667 106.295 11.84V13.44C106.295 13.8133 106.095 14 105.695 14H94.815V22.52C95.3217 21.1867 96.455 20.52 98.215 20.52H101.095C102.908 20.52 104.308 21.0133 105.295 22C106.308 22.9867 106.815 24.4 106.815 26.24V31.08C106.815 32.9467 106.295 34.4 105.255 35.44C104.215 36.48 102.775 37 100.935 37H97.655C95.815 37 94.3617 36.48 93.295 35.44C92.255 34.4 91.735 32.9467 91.735 31.08V29.84C91.735 29.44 91.9217 29.24 92.295 29.24H94.095C94.4683 29.24 94.655 29.44 94.655 29.84V31.04C94.655 33.36 95.7617 34.52 97.975 34.52H100.575C102.842 34.52 103.975 33.36 103.975 31.04V26.6C103.975 25.3467 103.695 24.4267 103.135 23.84C102.575 23.2267 101.695 22.92 100.495 22.92ZM122.625 29.36V13.64L113.585 29.36H122.625ZM124.825 37H123.145C122.799 37 122.625 36.8133 122.625 36.44V31.92H111.505C110.945 31.92 110.665 31.64 110.665 31.08V30.12C110.665 29.6667 110.759 29.2667 110.945 28.92L120.705 12.08C120.945 11.5467 121.345 11.28 121.905 11.28H124.505C125.092 11.28 125.385 11.56 125.385 12.12V29.36H128.345C128.719 29.36 128.905 29.5333 128.905 29.88V31.32C128.905 31.72 128.719 31.92 128.345 31.92H125.385V36.44C125.385 36.8133 125.199 37 124.825 37ZM169.229 34.44H172.509C174.749 34.44 175.869 33.28 175.869 30.96V17.32C175.869 15 174.749 13.84 172.509 13.84H169.229C167.015 13.84 165.909 15 165.909 17.32V30.96C165.909 33.28 167.015 34.44 169.229 34.44ZM172.869 37H168.869C167.055 37 165.615 36.48 164.549 35.44C163.509 34.4 162.989 32.9467 162.989 31.08V17.2C162.989 15.36 163.509 13.92 164.549 12.88C165.615 11.8133 167.055 11.28 168.869 11.28H172.869C174.682 11.28 176.109 11.8133 177.149 12.88C178.215 13.92 178.749 15.36 178.749 17.2V31.08C178.749 32.9467 178.215 34.4 177.149 35.44C176.109 36.48 174.682 37 172.869 37ZM217.159 31.6V36.44C217.159 36.8133 216.985 37 216.639 37H214.599C214.252 37 214.079 36.8133 214.079 36.44V31.6C214.079 31.2533 214.252 31.08 214.599 31.08H216.639C216.985 31.08 217.159 31.2533 217.159 31.6ZM251.281 16.8V15.2C251.281 14.8 251.441 14.5067 251.761 14.32L256.401 11.64C256.828 11.4 257.174 11.28 257.441 11.28H259.121C259.494 11.28 259.681 11.4667 259.681 11.84V36.44C259.681 36.8133 259.494 37 259.121 37H257.321C256.948 37 256.761 36.8133 256.761 36.44V14.4L252.001 17.12C251.521 17.3867 251.281 17.28 251.281 16.8ZM317.157 29.36V13.64L308.117 29.36H317.157ZM319.357 37H317.677C317.33 37 317.157 36.8133 317.157 36.44V31.92H306.037C305.477 31.92 305.197 31.64 305.197 31.08V30.12C305.197 29.6667 305.29 29.2667 305.477 28.92L315.237 12.08C315.477 11.5467 315.877 11.28 316.437 11.28H319.037C319.623 11.28 319.917 11.56 319.917 12.12V29.36H322.877C323.25 29.36 323.437 29.5333 323.437 29.88V31.32C323.437 31.72 323.25 31.92 322.877 31.92H319.917V36.44C319.917 36.8133 319.73 37 319.357 37ZM355.964 22.92H353.004C351.884 22.92 351.15 23.2533 350.804 23.92C350.457 24.56 350.11 24.88 349.764 24.88H347.924C347.55 24.88 347.364 24.6933 347.364 24.32V11.84C347.364 11.4667 347.55 11.28 347.924 11.28H361.164C361.564 11.28 361.764 11.4667 361.764 11.84V13.44C361.764 13.8133 361.564 14 361.164 14H350.284V22.52C350.79 21.1867 351.924 20.52 353.684 20.52H356.564C358.377 20.52 359.777 21.0133 360.764 22C361.777 22.9867 362.284 24.4 362.284 26.24V31.08C362.284 32.9467 361.764 34.4 360.724 35.44C359.684 36.48 358.244 37 356.404 37H353.124C351.284 37 349.83 36.48 348.764 35.44C347.724 34.4 347.204 32.9467 347.204 31.08V29.84C347.204 29.44 347.39 29.24 347.764 29.24H349.564C349.937 29.24 350.124 29.44 350.124 29.84V31.04C350.124 33.36 351.23 34.52 353.444 34.52H356.044C358.31 34.52 359.444 33.36 359.444 31.04V26.6C359.444 25.3467 359.164 24.4267 358.604 23.84C358.044 23.2267 357.164 22.92 355.964 22.92ZM393.487 34.44H396.767C399.007 34.44 400.127 33.28 400.127 30.96V17.32C400.127 15 399.007 13.84 396.767 13.84H393.487C391.273 13.84 390.167 15 390.167 17.32V30.96C390.167 33.28 391.273 34.44 393.487 34.44ZM397.127 37H393.127C391.313 37 389.873 36.48 388.807 35.44C387.767 34.4 387.247 32.9467 387.247 31.08V17.2C387.247 15.36 387.767 13.92 388.807 12.88C389.873 11.8133 391.313 11.28 393.127 11.28H397.127C398.94 11.28 400.367 11.8133 401.407 12.88C402.473 13.92 403.007 15.36 403.007 17.2V31.08C403.007 32.9467 402.473 34.4 401.407 35.44C400.367 36.48 398.94 37 397.127 37Z" fill="#B2423E"/>
<path d="M8.76 74.44H12.04C14.28 74.44 15.4 73.28 15.4 70.96V57.32C15.4 55 14.28 53.84 12.04 53.84H8.76C6.54667 53.84 5.44 55 5.44 57.32V70.96C5.44 73.28 6.54667 74.44 8.76 74.44ZM12.4 77H8.4C6.58667 77 5.14667 76.48 4.08 75.44C3.04 74.4 2.52 72.9467 2.52 71.08V57.2C2.52 55.36 3.04 53.92 4.08 52.88C5.14667 51.8133 6.58667 51.28 8.4 51.28H12.4C14.2133 51.28 15.64 51.8133 16.68 52.88C17.7467 53.92 18.28 55.36 18.28 57.2V71.08C18.28 72.9467 17.7467 74.4 16.68 75.44C15.64 76.48 14.2133 77 12.4 77ZM26.2213 71.6V76.44C26.2213 76.8133 26.0479 77 25.7013 77H23.6613C23.3146 77 23.1413 76.8133 23.1413 76.44V71.6C23.1413 71.2533 23.3146 71.08 23.6613 71.08H25.7013C26.0479 71.08 26.2213 71.2533 26.2213 71.6ZM36.9147 64.44H43.3547V57.32C43.3547 55 42.2347 53.84 39.9947 53.84H36.9147C34.7014 53.84 33.5947 55 33.5947 57.32V61C33.5947 63.2933 34.7014 64.44 36.9147 64.44ZM40.3547 77H32.4747C32.0747 77 31.8747 76.8133 31.8747 76.44V74.96C31.8747 74.6133 32.0747 74.44 32.4747 74.44H39.9947C42.2347 74.44 43.3547 73.28 43.3547 70.96V67H36.5547C34.7414 67 33.3014 66.48 32.2347 65.44C31.1947 64.4 30.6747 62.96 30.6747 61.12V57.2C30.6747 55.36 31.1947 53.92 32.2347 52.88C33.3014 51.8133 34.7414 51.28 36.5547 51.28H40.3547C42.1947 51.28 43.6347 51.8133 44.6747 52.88C45.7147 53.92 46.2347 55.36 46.2347 57.2V71.08C46.2347 72.9467 45.7147 74.4 44.6747 75.44C43.6347 76.48 42.1947 77 40.3547 77ZM57.67 62.84H59.99C62.2567 62.84 63.39 61.7067 63.39 59.44V57.16C63.39 54.8933 62.2567 53.76 59.99 53.76H57.23C54.99 53.76 53.87 54.8933 53.87 57.16V58.44C53.87 58.84 53.6833 59.04 53.31 59.04H51.51C51.1367 59.04 50.95 58.84 50.95 58.44V57.12C50.95 55.28 51.47 53.8533 52.51 52.84C53.5767 51.8 55.03 51.28 56.87 51.28H60.35C62.19 51.28 63.63 51.8 64.67 52.84C65.7367 53.8533 66.27 55.28 66.27 57.12V59.48C66.27 61.8533 65.1767 63.3867 62.99 64.08C65.1767 64.64 66.27 66.16 66.27 68.64V71.16C66.27 73 65.7367 74.44 64.67 75.48C63.63 76.4933 62.19 77 60.35 77H56.87C55.03 77 53.5767 76.4933 52.51 75.48C51.47 74.44 50.95 73 50.95 71.16V69.56C50.95 69.16 51.1367 68.96 51.51 68.96H53.31C53.6833 68.96 53.87 69.16 53.87 69.56V71.12C53.87 73.3867 54.99 74.52 57.23 74.52H59.99C62.2567 74.52 63.39 73.3867 63.39 71.12V68.68C63.39 66.4133 62.2567 65.28 59.99 65.28H57.67C57.2967 65.28 57.11 65.0933 57.11 64.72V63.4C57.11 63.0267 57.2967 62.84 57.67 62.84ZM74.15 77H72.27C71.8433 77 71.7367 76.7733 71.95 76.32L80.63 53.96H69.99C69.6167 53.96 69.43 53.7733 69.43 53.4V51.84C69.43 51.4667 69.6167 51.28 69.99 51.28H83.19C83.5633 51.28 83.75 51.4667 83.75 51.84V53.52C83.75 53.9467 83.6433 54.3733 83.43 54.8L75.07 76.48C74.9367 76.8267 74.63 77 74.15 77ZM98.2113 69.36V53.64L89.1713 69.36H98.2113ZM100.411 77H98.7313C98.3846 77 98.2113 76.8133 98.2113 76.44V71.92H87.0913C86.5313 71.92 86.2513 71.64 86.2513 71.08V70.12C86.2513 69.6667 86.3446 69.2667 86.5313 68.92L96.2912 52.08C96.5313 51.5467 96.9313 51.28 97.4913 51.28H100.091C100.678 51.28 100.971 51.56 100.971 52.12V69.36H103.931C104.305 69.36 104.491 69.5333 104.491 69.88V71.32C104.491 71.72 104.305 71.92 103.931 71.92H100.971V76.44C100.971 76.8133 100.785 77 100.411 77ZM114.506 62.84H116.826C119.093 62.84 120.226 61.7067 120.226 59.44V57.16C120.226 54.8933 119.093 53.76 116.826 53.76H114.066C111.826 53.76 110.706 54.8933 110.706 57.16V58.44C110.706 58.84 110.519 59.04 110.146 59.04H108.346C107.973 59.04 107.786 58.84 107.786 58.44V57.12C107.786 55.28 108.306 53.8533 109.346 52.84C110.413 51.8 111.866 51.28 113.706 51.28H117.186C119.026 51.28 120.466 51.8 121.506 52.84C122.573 53.8533 123.106 55.28 123.106 57.12V59.48C123.106 61.8533 122.013 63.3867 119.826 64.08C122.013 64.64 123.106 66.16 123.106 68.64V71.16C123.106 73 122.573 74.44 121.506 75.48C120.466 76.4933 119.026 77 117.186 77H113.706C111.866 77 110.413 76.4933 109.346 75.48C108.306 74.44 107.786 73 107.786 71.16V69.56C107.786 69.16 107.973 68.96 108.346 68.96H110.146C110.519 68.96 110.706 69.16 110.706 69.56V71.12C110.706 73.3867 111.826 74.52 114.066 74.52H116.826C119.093 74.52 120.226 73.3867 120.226 71.12V68.68C120.226 66.4133 119.093 65.28 116.826 65.28H114.506C114.133 65.28 113.946 65.0933 113.946 64.72V63.4C113.946 63.0267 114.133 62.84 114.506 62.84ZM164.815 74.44H168.095C170.335 74.44 171.455 73.28 171.455 70.96V57.32C171.455 55 170.335 53.84 168.095 53.84H164.815C162.601 53.84 161.495 55 161.495 57.32V70.96C161.495 73.28 162.601 74.44 164.815 74.44ZM168.455 77H164.455C162.641 77 161.201 76.48 160.135 75.44C159.095 74.4 158.575 72.9467 158.575 71.08V57.2C158.575 55.36 159.095 53.92 160.135 52.88C161.201 51.8133 162.641 51.28 164.455 51.28H168.455C170.268 51.28 171.695 51.8133 172.735 52.88C173.801 53.92 174.335 55.36 174.335 57.2V71.08C174.335 72.9467 173.801 74.4 172.735 75.44C171.695 76.48 170.268 77 168.455 77ZM212.745 71.6V76.44C212.745 76.8133 212.571 77 212.225 77H210.185C209.838 77 209.665 76.8133 209.665 76.44V71.6C209.665 71.2533 209.838 71.08 210.185 71.08H212.225C212.571 71.08 212.745 71.2533 212.745 71.6ZM259.227 69.36V53.64L250.187 69.36H259.227ZM261.427 77H259.747C259.4 77 259.227 76.8133 259.227 76.44V71.92H248.107C247.547 71.92 247.267 71.64 247.267 71.08V70.12C247.267 69.6667 247.36 69.2667 247.547 68.92L257.307 52.08C257.547 51.5467 257.947 51.28 258.507 51.28H261.107C261.694 51.28 261.987 51.56 261.987 52.12V69.36H264.947C265.32 69.36 265.507 69.5333 265.507 69.88V71.32C265.507 71.72 265.32 71.92 264.947 71.92H261.987V76.44C261.987 76.8133 261.8 77 261.427 77ZM320.907 69.36V53.64L311.867 69.36H320.907ZM323.107 77H321.427C321.08 77 320.907 76.8133 320.907 76.44V71.92H309.787C309.227 71.92 308.947 71.64 308.947 71.08V70.12C308.947 69.6667 309.04 69.2667 309.227 68.92L318.987 52.08C319.227 51.5467 319.627 51.28 320.187 51.28H322.787C323.373 51.28 323.667 51.56 323.667 52.12V69.36H326.627C327 69.36 327.187 69.5333 327.187 69.88V71.32C327.187 71.72 327 71.92 326.627 71.92H323.667V76.44C323.667 76.8133 323.48 77 323.107 77ZM359.714 62.92H356.754C355.634 62.92 354.9 63.2533 354.554 63.92C354.207 64.56 353.86 64.88 353.514 64.88H351.674C351.3 64.88 351.114 64.6933 351.114 64.32V51.84C351.114 51.4667 351.3 51.28 351.674 51.28H364.914C365.314 51.28 365.514 51.4667 365.514 51.84V53.44C365.514 53.8133 365.314 54 364.914 54H354.034V62.52C354.54 61.1867 355.674 60.52 357.434 60.52H360.314C362.127 60.52 363.527 61.0133 364.514 62C365.527 62.9867 366.034 64.4 366.034 66.24V71.08C366.034 72.9467 365.514 74.4 364.474 75.44C363.434 76.48 361.994 77 360.154 77H356.874C355.034 77 353.58 76.48 352.514 75.44C351.474 74.4 350.954 72.9467 350.954 71.08V69.84C350.954 69.44 351.14 69.24 351.514 69.24H353.314C353.687 69.24 353.874 69.44 353.874 69.84V71.04C353.874 73.36 354.98 74.52 357.194 74.52H359.794C362.06 74.52 363.194 73.36 363.194 71.04V66.6C363.194 65.3467 362.914 64.4267 362.354 63.84C361.794 63.2267 360.914 62.92 359.714 62.92ZM390.757 76.44V72.84C390.757 71.0533 391.503 69.5867 392.997 68.44L400.717 62.36C402.05 61.3467 402.717 60.0933 402.717 58.6V57.16C402.717 54.8933 401.57 53.76 399.277 53.76H396.837C394.597 53.76 393.477 54.8933 393.477 57.16V58.8C393.477 59.2 393.29 59.4 392.917 59.4H391.117C390.77 59.4 390.597 59.2 390.597 58.8V57.12C390.597 55.28 391.117 53.8533 392.157 52.84C393.197 51.8 394.637 51.28 396.477 51.28H399.677C401.517 51.28 402.957 51.8 403.997 52.84C405.037 53.8533 405.557 55.28 405.557 57.12V58.76C405.557 60.84 404.73 62.5333 403.077 63.84L395.237 70.04C394.357 70.7333 393.917 71.5733 393.917 72.56V74.4H405.077C405.45 74.4 405.637 74.5867 405.637 74.96V76.44C405.637 76.8133 405.45 77 405.077 77H391.317C390.943 77 390.757 76.8133 390.757 76.44Z" fill="#B2423E"/>
<path d="M46.92 104.84H49.24C51.5067 104.84 52.64 103.707 52.64 101.44V99.16C52.64 96.8933 51.5067 95.76 49.24 95.76H46.48C44.24 95.76 43.12 96.8933 43.12 99.16V100.44C43.12 100.84 42.9333 101.04 42.56 101.04H40.76C40.3867 101.04 40.2 100.84 40.2 100.44V99.12C40.2 97.28 40.72 95.8533 41.76 94.84C42.8267 93.8 44.28 93.28 46.12 93.28H49.6C51.44 93.28 52.88 93.8 53.92 94.84C54.9867 95.8533 55.52 97.28 55.52 99.12V101.48C55.52 103.853 54.4267 105.387 52.24 106.08C54.4267 106.64 55.52 108.16 55.52 110.64V113.16C55.52 115 54.9867 116.44 53.92 117.48C52.88 118.493 51.44 119 49.6 119H46.12C44.28 119 42.8267 118.493 41.76 117.48C40.72 116.44 40.2 115 40.2 113.16V111.56C40.2 111.16 40.3867 110.96 40.76 110.96H42.56C42.9333 110.96 43.12 111.16 43.12 111.56V113.12C43.12 115.387 44.24 116.52 46.48 116.52H49.24C51.5067 116.52 52.64 115.387 52.64 113.12V110.68C52.64 108.413 51.5067 107.28 49.24 107.28H46.92C46.5467 107.28 46.36 107.093 46.36 106.72V105.4C46.36 105.027 46.5467 104.84 46.92 104.84ZM63.44 113.6V118.44C63.44 118.813 63.2667 119 62.92 119H60.88C60.5333 119 60.36 118.813 60.36 118.44V113.6C60.36 113.253 60.5333 113.08 60.88 113.08H62.92C63.2667 113.08 63.44 113.253 63.44 113.6ZM68.0534 118.44V114.84C68.0534 113.053 68.8001 111.587 70.2934 110.44L78.0134 104.36C79.3468 103.347 80.0134 102.093 80.0134 100.6V99.16C80.0134 96.8933 78.8668 95.76 76.5734 95.76H74.1334C71.8934 95.76 70.7734 96.8933 70.7734 99.16V100.8C70.7734 101.2 70.5868 101.4 70.2134 101.4H68.4134C68.0668 101.4 67.8934 101.2 67.8934 100.8V99.12C67.8934 97.28 68.4134 95.8533 69.4534 94.84C70.4934 93.8 71.9334 93.28 73.7734 93.28H76.9734C78.8134 93.28 80.2534 93.8 81.2934 94.84C82.3334 95.8533 82.8534 97.28 82.8534 99.12V100.76C82.8534 102.84 82.0268 104.533 80.3734 105.84L72.5334 112.04C71.6534 112.733 71.2134 113.573 71.2134 114.56V116.4H82.3734C82.7468 116.4 82.9334 116.587 82.9334 116.96V118.44C82.9334 118.813 82.7468 119 82.3734 119H68.6134C68.2401 119 68.0534 118.813 68.0534 118.44ZM96.1903 104.92H93.2303C92.1103 104.92 91.377 105.253 91.0303 105.92C90.6836 106.56 90.337 106.88 89.9903 106.88H88.1503C87.777 106.88 87.5903 106.693 87.5903 106.32V93.84C87.5903 93.4667 87.777 93.28 88.1503 93.28H101.39C101.79 93.28 101.99 93.4667 101.99 93.84V95.44C101.99 95.8133 101.79 96 101.39 96H90.5103V104.52C91.017 103.187 92.1503 102.52 93.9103 102.52H96.7903C98.6036 102.52 100.004 103.013 100.99 104C102.004 104.987 102.51 106.4 102.51 108.24V113.08C102.51 114.947 101.99 116.4 100.95 117.44C99.9103 118.48 98.4703 119 96.6303 119H93.3503C91.5103 119 90.057 118.48 88.9903 117.44C87.9503 116.4 87.4303 114.947 87.4303 113.08V111.84C87.4303 111.44 87.617 111.24 87.9903 111.24H89.7903C90.1636 111.24 90.3503 111.44 90.3503 111.84V113.04C90.3503 115.36 91.457 116.52 93.6703 116.52H96.2703C98.537 116.52 99.6703 115.36 99.6703 113.04V108.6C99.6703 107.347 99.3903 106.427 98.8303 105.84C98.2703 105.227 97.3903 104.92 96.1903 104.92ZM113.161 116.44H116.241C118.481 116.44 119.601 115.28 119.601 112.96V109.44C119.601 107.12 118.481 105.96 116.241 105.96H109.801V112.96C109.801 115.28 110.921 116.44 113.161 116.44ZM116.601 119H112.801C110.961 119 109.507 118.48 108.441 117.44C107.401 116.373 106.881 114.92 106.881 113.08V99.2C106.881 97.36 107.401 95.92 108.441 94.88C109.507 93.8133 110.961 93.28 112.801 93.28H120.561C120.934 93.28 121.121 93.4667 121.121 93.84V95.32C121.121 95.6667 120.934 95.84 120.561 95.84H113.161C110.921 95.84 109.801 97 109.801 99.32V103.4H116.601C118.441 103.4 119.881 103.92 120.921 104.96C121.961 106 122.481 107.453 122.481 109.32V113.08C122.481 114.947 121.961 116.4 120.921 117.44C119.881 118.48 118.441 119 116.601 119ZM133.596 116.44H136.876C139.116 116.44 140.236 115.28 140.236 112.96V99.32C140.236 97 139.116 95.84 136.876 95.84H133.596C131.383 95.84 130.276 97 130.276 99.32V112.96C130.276 115.28 131.383 116.44 133.596 116.44ZM137.236 119H133.236C131.423 119 129.983 118.48 128.916 117.44C127.876 116.4 127.356 114.947 127.356 113.08V99.2C127.356 97.36 127.876 95.92 128.916 94.88C129.983 93.8133 131.423 93.28 133.236 93.28H137.236C139.049 93.28 140.476 93.8133 141.516 94.88C142.583 95.92 143.116 97.36 143.116 99.2V113.08C143.116 114.947 142.583 116.4 141.516 117.44C140.476 118.48 139.049 119 137.236 119ZM159.297 111.36V95.64L150.257 111.36H159.297ZM161.497 119H159.817C159.471 119 159.297 118.813 159.297 118.44V113.92H148.177C147.617 113.92 147.337 113.64 147.337 113.08V112.12C147.337 111.667 147.431 111.267 147.617 110.92L157.377 94.08C157.617 93.5467 158.017 93.28 158.577 93.28H161.177C161.764 93.28 162.057 93.56 162.057 94.12V111.36H165.017C165.391 111.36 165.577 111.533 165.577 111.88V113.32C165.577 113.72 165.391 113.92 165.017 113.92H162.057V118.44C162.057 118.813 161.871 119 161.497 119ZM205.901 116.44H209.181C211.421 116.44 212.541 115.28 212.541 112.96V99.32C212.541 97 211.421 95.84 209.181 95.84H205.901C203.687 95.84 202.581 97 202.581 99.32V112.96C202.581 115.28 203.687 116.44 205.901 116.44ZM209.541 119H205.541C203.727 119 202.287 118.48 201.221 117.44C200.181 116.4 199.661 114.947 199.661 113.08V99.2C199.661 97.36 200.181 95.92 201.221 94.88C202.287 93.8133 203.727 93.28 205.541 93.28H209.541C211.354 93.28 212.781 93.8133 213.821 94.88C214.887 95.92 215.421 97.36 215.421 99.2V113.08C215.421 114.947 214.887 116.4 213.821 117.44C212.781 118.48 211.354 119 209.541 119ZM253.831 113.6V118.44C253.831 118.813 253.657 119 253.311 119H251.271C250.924 119 250.751 118.813 250.751 118.44V113.6C250.751 113.253 250.924 113.08 251.271 113.08H253.311C253.657 113.08 253.831 113.253 253.831 113.6ZM300.313 111.36V95.64L291.273 111.36H300.313ZM302.513 119H300.833C300.486 119 300.313 118.813 300.313 118.44V113.92H289.193C288.633 113.92 288.353 113.64 288.353 113.08V112.12C288.353 111.667 288.446 111.267 288.633 110.92L298.393 94.08C298.633 93.5467 299.033 93.28 299.593 93.28H302.193C302.779 93.28 303.073 93.56 303.073 94.12V111.36H306.033C306.406 111.36 306.593 111.533 306.593 111.88V113.32C306.593 113.72 306.406 113.92 306.033 113.92H303.073V118.44C303.073 118.813 302.886 119 302.513 119ZM372.149 111.36V95.64L363.109 111.36H372.149ZM374.349 119H372.669C372.322 119 372.149 118.813 372.149 118.44V113.92H361.029C360.469 113.92 360.189 113.64 360.189 113.08V112.12C360.189 111.667 360.282 111.267 360.469 110.92L370.229 94.08C370.469 93.5467 370.869 93.28 371.429 93.28H374.029C374.615 93.28 374.909 93.56 374.909 94.12V111.36H377.869C378.242 111.36 378.429 111.533 378.429 111.88V113.32C378.429 113.72 378.242 113.92 377.869 113.92H374.909V118.44C374.909 118.813 374.722 119 374.349 119Z" fill="#B2423E"/>
</svg>
