<svg width="53" height="556" viewBox="0 0 53 556" fill="none" xmlns="http://www.w3.org/2000/svg">
<rect y="38" width="24" height="24" fill="#772A29"/>
<rect y="67" width="24" height="24" fill="#772A29"/>
<rect x="29" y="38" width="24" height="24" fill="#772A29"/>
<rect x="29" y="67" width="24" height="24" fill="#772A29"/>
<rect x="24" y="46" width="5" height="8" fill="#772A29"/>
<rect x="24" y="75" width="5" height="8" fill="#772A29"/>
<path d="M24 126H0L0 102H24V126ZM8 110V118H16V110H8Z" fill="#772A29"/>
<path d="M53 24H29V0L53 0V24ZM37 8V16H45V8H37Z" fill="#772A29"/>
<rect y="253" width="24" height="24" fill="#772A29"/>
<rect y="282" width="24" height="24" fill="#772A29"/>
<rect x="29" y="253" width="24" height="24" fill="#772A29"/>
<rect x="29" y="282" width="24" height="24" fill="#772A29"/>
<rect x="24" y="261" width="5" height="8" fill="#772A29"/>
<rect x="24" y="290" width="5" height="8" fill="#772A29"/>
<path d="M24 341H0L0 317H24V341ZM8 325V333H16V325H8Z" fill="#772A29"/>
<path d="M53 239H29V215H53V239ZM37 223V231H45V223H37Z" fill="#772A29"/>
<rect y="468" width="24" height="24" fill="#772A29"/>
<rect y="497" width="24" height="24" fill="#772A29"/>
<rect x="29" y="468" width="24" height="24" fill="#772A29"/>
<rect x="29" y="497" width="24" height="24" fill="#772A29"/>
<rect x="24" y="476" width="5" height="8" fill="#772A29"/>
<rect x="24" y="505" width="5" height="8" fill="#772A29"/>
<path d="M24 556H0L0 532H24V556ZM8 540V548H16V540H8Z" fill="#772A29"/>
<path d="M53 454H29V430H53V454ZM37 438V446H45V438H37Z" fill="#772A29"/>
</svg>
