<svg width="56" height="1315" viewBox="0 0 56 1315" fill="none" xmlns="http://www.w3.org/2000/svg">
<path d="M45.4 1305.45V1311.44C45.4 1311.85 45.1947 1312.05 44.784 1312.05H13.324C12.9133 1312.05 12.708 1311.85 12.708 1311.44V1305.45C12.708 1305.04 12.9133 1304.84 13.324 1304.84H14.424C14.8347 1304.84 15.04 1305.04 15.04 1305.45V1308.88C15.04 1309.18 15.1867 1309.32 15.48 1309.32H42.628C42.9213 1309.32 43.068 1309.18 43.068 1308.88V1305.45C43.068 1305.04 43.2733 1304.84 43.684 1304.84H44.828C45.2093 1304.84 45.4 1305.04 45.4 1305.45ZM38.184 1258.79L38.184 1255.18C38.184 1252.71 36.908 1251.48 34.356 1251.48H19.352C16.8 1251.48 15.524 1252.71 15.524 1255.18V1258.79C15.524 1261.22 16.8 1262.44 19.352 1262.44H34.356C36.908 1262.44 38.184 1261.22 38.184 1258.79ZM41 1254.78L41 1259.18C41 1261.18 40.428 1262.76 39.284 1263.93C38.14 1265.08 36.5413 1265.65 34.488 1265.65H19.22C17.196 1265.65 15.612 1265.08 14.468 1263.93C13.2947 1262.76 12.708 1261.18 12.708 1259.18V1254.78C12.708 1252.79 13.2947 1251.22 14.468 1250.07C15.612 1248.9 17.196 1248.31 19.22 1248.31H34.488C36.5413 1248.31 38.14 1248.9 39.284 1250.07C40.428 1251.22 41 1252.79 41 1254.78ZM35.06 1239.58H40.384C40.7947 1239.58 41 1239.77 41 1240.15V1242.39C41 1242.78 40.7947 1242.97 40.384 1242.97H35.06C34.6787 1242.97 34.488 1242.78 34.488 1242.39V1240.15C34.488 1239.77 34.6787 1239.58 35.06 1239.58ZM38.184 1227.38V1223.77C38.184 1221.3 36.908 1220.07 34.356 1220.07H19.352C16.8 1220.07 15.524 1221.3 15.524 1223.77V1227.38C15.524 1229.81 16.8 1231.03 19.352 1231.03H34.356C36.908 1231.03 38.184 1229.81 38.184 1227.38ZM41 1223.37V1227.77C41 1229.77 40.428 1231.35 39.284 1232.52C38.14 1233.67 36.5413 1234.24 34.488 1234.24H19.22C17.196 1234.24 15.612 1233.67 14.468 1232.52C13.2947 1231.35 12.708 1229.77 12.708 1227.77V1223.37C12.708 1221.38 13.2947 1219.81 14.468 1218.66C15.612 1217.49 17.196 1216.9 19.22 1216.9H34.488C36.5413 1216.9 38.14 1217.49 39.284 1218.66C40.428 1219.81 41 1221.38 41 1223.37ZM38.184 1204.52V1200.91C38.184 1198.44 36.908 1197.21 34.356 1197.21H19.352C16.8 1197.21 15.524 1198.44 15.524 1200.91V1204.52C15.524 1206.95 16.8 1208.17 19.352 1208.17H34.356C36.908 1208.17 38.184 1206.95 38.184 1204.52ZM41 1200.51V1204.91C41 1206.91 40.428 1208.49 39.284 1209.66C38.14 1210.81 36.5413 1211.38 34.488 1211.38H19.22C17.196 1211.38 15.612 1210.81 14.468 1209.66C13.2947 1208.49 12.708 1206.91 12.708 1204.91V1200.51C12.708 1198.52 13.2947 1196.95 14.468 1195.8C15.612 1194.63 17.196 1194.04 19.22 1194.04H34.488C36.5413 1194.04 38.14 1194.63 39.284 1195.8C40.428 1196.95 41 1198.52 41 1200.51ZM38.184 1181.66V1178.05C38.184 1175.58 36.908 1174.35 34.356 1174.35H19.352C16.8 1174.35 15.524 1175.58 15.524 1178.05V1181.66C15.524 1184.09 16.8 1185.31 19.352 1185.31H34.356C36.908 1185.31 38.184 1184.09 38.184 1181.66ZM41 1177.65V1182.05C41 1184.05 40.428 1185.63 39.284 1186.8C38.14 1187.95 36.5413 1188.52 34.488 1188.52H19.22C17.196 1188.52 15.612 1187.95 14.468 1186.8C13.2947 1185.63 12.708 1184.05 12.708 1182.05V1177.65C12.708 1175.66 13.2947 1174.09 14.468 1172.94C15.612 1171.77 17.196 1171.18 19.22 1171.18H34.488C36.5413 1171.18 38.14 1171.77 39.284 1172.94C40.428 1174.09 41 1175.66 41 1177.65ZM38.184 1158.8V1155.19C38.184 1152.73 36.908 1151.49 34.356 1151.49H19.352C16.8 1151.49 15.524 1152.73 15.524 1155.19L15.524 1158.8C15.524 1161.23 16.8 1162.45 19.352 1162.45H34.356C36.908 1162.45 38.184 1161.23 38.184 1158.8ZM41 1154.79V1159.19C41 1161.19 40.428 1162.77 39.284 1163.95C38.14 1165.09 36.5413 1165.66 34.488 1165.66H19.22C17.196 1165.66 15.612 1165.09 14.468 1163.95C13.2947 1162.77 12.708 1161.19 12.708 1159.19V1154.79C12.708 1152.8 13.2947 1151.23 14.468 1150.09C15.612 1148.91 17.196 1148.33 19.22 1148.33H34.488C36.5413 1148.33 38.14 1148.91 39.284 1150.09C40.428 1151.23 41 1152.8 41 1154.79ZM38.184 1135.94V1132.33C38.184 1129.87 36.908 1128.63 34.356 1128.63H19.352C16.8 1128.63 15.524 1129.87 15.524 1132.33V1135.94C15.524 1138.37 16.8 1139.59 19.352 1139.59H34.356C36.908 1139.59 38.184 1138.37 38.184 1135.94ZM41 1131.93V1136.33C41 1138.33 40.428 1139.91 39.284 1141.09C38.14 1142.23 36.5413 1142.8 34.488 1142.8H19.22C17.196 1142.8 15.612 1142.23 14.468 1141.09C13.2947 1139.91 12.708 1138.33 12.708 1136.33V1131.93C12.708 1129.94 13.2947 1128.37 14.468 1127.23C15.612 1126.05 17.196 1125.47 19.22 1125.47H34.488C36.5413 1125.47 38.14 1126.05 39.284 1127.23C40.428 1128.37 41 1129.94 41 1131.93ZM38.184 1113.08V1109.47C38.184 1107.01 36.908 1105.77 34.356 1105.77H19.352C16.8 1105.77 15.524 1107.01 15.524 1109.47V1113.08C15.524 1115.51 16.8 1116.73 19.352 1116.73H34.356C36.908 1116.73 38.184 1115.51 38.184 1113.08ZM41 1109.07V1113.47C41 1115.47 40.428 1117.05 39.284 1118.23C38.14 1119.37 36.5413 1119.94 34.488 1119.94H19.22C17.196 1119.94 15.612 1119.37 14.468 1118.23C13.2947 1117.05 12.708 1115.47 12.708 1113.47V1109.07C12.708 1107.08 13.2947 1105.51 14.468 1104.37C15.612 1103.19 17.196 1102.61 19.22 1102.61H34.488C36.5413 1102.61 38.14 1103.19 39.284 1104.37C40.428 1105.51 41 1107.08 41 1109.07ZM43.552 1077.5V1085.47C43.552 1088.52 42.5693 1091.13 40.604 1093.3C38.6387 1095.47 35.9987 1096.56 32.684 1096.56H25.424C22.168 1096.56 19.528 1095.5 17.504 1093.39C15.48 1091.28 14.468 1088.75 14.468 1085.82V1077.11C14.468 1074.97 15.1133 1073.24 16.404 1071.92C17.6653 1070.6 19.308 1069.94 21.332 1069.94H31.452C33.212 1069.94 34.6347 1070.48 35.72 1071.56C36.8053 1072.65 37.348 1074.07 37.348 1075.83V1077.55C37.348 1078.1 37.2013 1078.57 36.908 1078.96C36.5853 1079.34 36.16 1079.53 35.632 1079.53H34.972V1079.7C36.5267 1080.44 37.304 1081.96 37.304 1084.28C37.304 1086.07 36.7467 1087.51 35.632 1088.59C34.5173 1089.68 32.9627 1090.22 30.968 1090.22H27.272C25.248 1090.22 23.664 1089.66 22.52 1088.55C21.3467 1087.43 20.76 1085.94 20.76 1084.06V1077.42C20.76 1077 20.9653 1076.8 21.376 1076.8H34.796C35.0893 1076.8 35.236 1076.59 35.236 1076.18V1075.96C35.236 1073.38 33.9013 1072.09 31.232 1072.09H21.508C19.924 1072.09 18.7067 1072.56 17.856 1073.5C16.976 1074.44 16.536 1075.7 16.536 1077.28V1085.69C16.536 1088.18 17.3573 1090.26 19 1091.94C20.6427 1093.58 22.828 1094.4 25.556 1094.4H32.464C35.192 1094.4 37.3773 1093.55 39.02 1091.85C40.6627 1090.15 41.484 1088.03 41.484 1085.51V1077.5C41.484 1077.09 41.6747 1076.89 42.056 1076.89H42.936C43.3467 1076.89 43.552 1077.09 43.552 1077.5ZM30.748 1079.53H23.708C23.4147 1079.53 23.268 1079.67 23.268 1079.97V1083.66C23.268 1086.13 24.544 1087.36 27.096 1087.36H30.968C33.52 1087.36 34.796 1086.13 34.796 1083.66V1083.58C34.796 1082.26 34.444 1081.26 33.74 1080.58C33.036 1079.88 32.0387 1079.53 30.748 1079.53ZM38.184 1059.68V1052.29C38.184 1049.83 36.908 1048.6 34.356 1048.6H19.352C16.8 1048.6 15.524 1049.83 15.524 1052.29V1059.68C15.524 1059.98 15.656 1060.12 15.92 1060.12H37.788C38.052 1060.12 38.184 1059.98 38.184 1059.68ZM40.384 1063.34H13.324C12.9133 1063.34 12.708 1063.13 12.708 1062.72L12.708 1051.9C12.708 1049.87 13.2947 1048.29 14.468 1047.14C15.612 1045.97 17.196 1045.38 19.22 1045.38H34.488C36.512 1045.38 38.1107 1045.97 39.284 1047.14C40.428 1048.29 41 1049.87 41 1051.9V1062.72C41 1063.13 40.7947 1063.34 40.384 1063.34ZM44.828 1039.72H43.684C43.2733 1039.72 43.068 1039.52 43.068 1039.11V1035.68C43.068 1035.38 42.9213 1035.24 42.628 1035.24H15.48C15.1867 1035.24 15.04 1035.38 15.04 1035.68V1039.11C15.04 1039.52 14.8347 1039.72 14.424 1039.72H13.324C12.9133 1039.72 12.708 1039.52 12.708 1039.11V1033.12C12.708 1032.74 12.9133 1032.55 13.324 1032.55H44.784C45.1947 1032.55 45.4 1032.74 45.4 1033.12V1039.11C45.4 1039.52 45.2093 1039.72 44.828 1039.72Z" fill="#8B3430"/>
<path d="M41 935.284V938.408C41 938.789 40.7947 939.039 40.384 939.156L13.368 946.944C12.928 947.032 12.708 946.841 12.708 946.372V944.216C12.708 943.835 12.9133 943.6 13.324 943.512L37.392 936.956V936.78L13.324 930.224C12.9133 930.136 12.708 929.901 12.708 929.52V927.32C12.708 926.88 12.928 926.704 13.368 926.792L40.384 934.58C40.7947 934.697 41 934.932 41 935.284ZM38.184 918.614V911.222C38.184 908.758 36.908 907.526 34.356 907.526H19.352C16.8 907.526 15.524 908.758 15.524 911.222V918.614C15.524 918.908 15.656 919.054 15.92 919.054H37.788C38.052 919.054 38.184 918.908 38.184 918.614ZM40.384 922.266H13.324C12.9133 922.266 12.708 922.061 12.708 921.65V910.826C12.708 908.802 13.2947 907.218 14.468 906.074C15.612 904.901 17.196 904.314 19.22 904.314H34.488C36.512 904.314 38.1107 904.901 39.284 906.074C40.428 907.218 41 908.802 41 910.826V921.65C41 922.061 40.7947 922.266 40.384 922.266ZM41 883.385L41 897.201C41 897.612 40.7947 897.817 40.384 897.817H13.324C12.9133 897.817 12.708 897.612 12.708 897.201V883.385C12.708 882.974 12.9133 882.769 13.324 882.769H14.908C15.3187 882.769 15.524 882.974 15.524 883.385V894.165C15.524 894.458 15.656 894.605 15.92 894.605H24.808C25.072 894.605 25.204 894.458 25.204 894.165V884.749C25.204 884.338 25.4093 884.133 25.82 884.133H27.404C27.8147 884.133 28.02 884.338 28.02 884.749V894.165C28.02 894.458 28.152 894.605 28.416 894.605H37.788C38.052 894.605 38.184 894.458 38.184 894.165L38.184 883.385C38.184 882.974 38.3893 882.769 38.8 882.769H40.384C40.7947 882.769 41 882.974 41 883.385ZM41 865.324V870.604C41 872.628 40.428 874.227 39.284 875.4C38.14 876.544 36.5413 877.116 34.488 877.116H19.22C17.1667 877.116 15.568 876.544 14.424 875.4C13.28 874.227 12.708 872.628 12.708 870.604V865.324C12.708 863.3 13.28 861.716 14.424 860.572C15.568 859.399 17.1667 858.812 19.22 858.812H21.376C21.7867 858.812 21.992 859.018 21.992 859.428L21.992 861.408C21.992 861.819 21.7867 862.024 21.376 862.024H19.352C16.8 862.024 15.524 863.256 15.524 865.72V870.252C15.524 872.687 16.8 873.904 19.352 873.904H34.356C36.908 873.904 38.184 872.687 38.184 870.252V865.72C38.184 863.256 36.908 862.024 34.356 862.024H32.332C31.9213 862.024 31.716 861.819 31.716 861.408L31.716 859.428C31.716 859.018 31.9213 858.812 32.332 858.812H34.488C36.5413 858.812 38.14 859.399 39.284 860.572C40.428 861.716 41 863.3 41 865.324ZM38.184 846.448V841.96C38.184 839.496 36.908 838.264 34.356 838.264H19.352C16.8 838.264 15.524 839.496 15.524 841.96V846.448C15.524 848.882 16.8 850.1 19.352 850.1H34.356C36.908 850.1 38.184 848.882 38.184 846.448ZM41 841.564V846.8C41 848.824 40.428 850.422 39.284 851.596C38.14 852.74 36.5413 853.312 34.488 853.312H19.22C17.1667 853.312 15.568 852.74 14.424 851.596C13.28 850.422 12.708 848.824 12.708 846.8L12.708 841.564C12.708 839.54 13.2947 837.956 14.468 836.812C15.612 835.638 17.196 835.052 19.22 835.052H34.488C36.512 835.052 38.1107 835.638 39.284 836.812C40.428 837.956 41 839.54 41 841.564ZM15.128 822.655V822.787C15.128 824.137 15.5533 825.178 16.404 825.911C17.2547 826.645 18.472 827.011 20.056 827.011H38.14C39.724 827.011 40.9413 826.645 41.792 825.911C42.6427 825.178 43.068 824.122 43.068 822.743V822.655C43.068 822.245 43.2587 822.039 43.64 822.039H45.004C45.3267 822.039 45.488 822.245 45.488 822.655V822.787C45.488 824.929 44.8427 826.615 43.552 827.847C42.2613 829.079 40.3693 829.695 37.876 829.695H20.32C17.8267 829.695 15.9347 829.079 14.644 827.847C13.3533 826.615 12.708 824.929 12.708 822.787V822.611C12.708 822.23 12.8693 822.039 13.192 822.039H14.556C14.9373 822.039 15.128 822.245 15.128 822.655ZM41 801.05V815.174C41 815.584 40.7947 815.79 40.384 815.79H13.324C12.9133 815.79 12.708 815.584 12.708 815.174V813.194C12.708 812.783 12.9133 812.578 13.324 812.578H37.7C37.964 812.578 38.096 812.431 38.096 812.138V801.05C38.096 800.639 38.316 800.434 38.756 800.434H40.384C40.7947 800.434 41 800.639 41 801.05ZM38.184 789.514V785.026C38.184 782.562 36.908 781.33 34.356 781.33H19.352C16.8 781.33 15.524 782.562 15.524 785.026L15.524 789.514C15.524 791.949 16.8 793.166 19.352 793.166H34.356C36.908 793.166 38.184 791.949 38.184 789.514ZM41 784.63V789.866C41 791.89 40.428 793.489 39.284 794.662C38.14 795.806 36.5413 796.378 34.488 796.378H19.22C17.1667 796.378 15.568 795.806 14.424 794.662C13.28 793.489 12.708 791.89 12.708 789.866L12.708 784.63C12.708 782.606 13.2947 781.022 14.468 779.878C15.612 778.705 17.196 778.118 19.22 778.118H34.488C36.512 778.118 38.1107 778.705 39.284 779.878C40.428 781.022 41 782.606 41 784.63ZM41 764.138V767.526C41 767.936 40.7947 768.186 40.384 768.274L13.324 773.906C12.9133 773.994 12.708 773.803 12.708 773.334V770.958C12.708 770.518 12.9133 770.283 13.324 770.254L37.568 765.81V765.546L13.28 759.606C12.8987 759.518 12.708 759.283 12.708 758.902V756.262C12.708 755.88 12.8987 755.646 13.28 755.558L37.568 749.53V749.266L13.368 744.866C12.928 744.778 12.708 744.528 12.708 744.118V741.742C12.708 741.272 12.928 741.082 13.368 741.17L40.384 746.846C40.7947 746.934 41 747.168 41 747.55V750.938C41 751.348 40.7947 751.598 40.384 751.686L16.756 757.45V757.626L40.384 763.434C40.7947 763.522 41 763.756 41 764.138ZM45.004 737.699H43.64C43.2587 737.699 43.068 737.509 43.068 737.127V736.995C43.068 735.675 42.6427 734.649 41.792 733.915C40.9413 733.153 39.724 732.771 38.14 732.771H20.056C18.472 732.771 17.2547 733.153 16.404 733.915C15.5533 734.649 15.128 735.675 15.128 736.995V737.127C15.128 737.509 14.9373 737.699 14.556 737.699H13.192C12.8693 737.699 12.708 737.509 12.708 737.127V736.995C12.708 734.854 13.3533 733.167 14.644 731.935C15.9347 730.674 17.8267 730.043 20.32 730.043H37.876C40.3693 730.043 42.2613 730.674 43.552 731.935C44.8427 733.167 45.488 734.854 45.488 736.995V737.127C45.488 737.509 45.3267 737.699 45.004 737.699Z" fill="#8B3430"/>
<path d="M19.132 664.016H24.456C24.8667 664.016 25.072 664.207 25.072 664.588V666.832C25.072 667.213 24.852 667.404 24.412 667.404H19.176C18.7653 667.404 18.56 667.213 18.56 666.832V664.588C18.56 664.207 18.7507 664.016 19.132 664.016ZM35.06 664.016H40.384C40.7947 664.016 41 664.207 41 664.588V666.832C41 667.213 40.78 667.404 40.34 667.404H35.06C34.6787 667.404 34.488 667.213 34.488 666.832V664.588C34.488 664.207 34.6787 664.016 35.06 664.016ZM38.184 643.149V635.757C38.184 633.293 36.908 632.061 34.356 632.061H19.352C16.8 632.061 15.524 633.293 15.524 635.757V643.149C15.524 643.443 15.656 643.589 15.92 643.589H37.788C38.052 643.589 38.184 643.443 38.184 643.149ZM40.384 646.801H13.324C12.9133 646.801 12.708 646.596 12.708 646.185V635.361C12.708 633.337 13.2947 631.753 14.468 630.609C15.612 629.436 17.196 628.849 19.22 628.849H34.488C36.512 628.849 38.1107 629.436 39.284 630.609C40.428 631.753 41 633.337 41 635.361V646.185C41 646.596 40.7947 646.801 40.384 646.801ZM41 621.736V624.024C41 624.229 40.9413 624.376 40.824 624.464C40.6773 624.523 40.516 624.508 40.34 624.42L26.216 616.72L13.368 624.024C13.192 624.141 13.0453 624.156 12.928 624.068C12.7813 623.98 12.708 623.833 12.708 623.628V621.428C12.708 620.959 12.9133 620.636 13.324 620.46L24.148 614.564V614.388L13.324 608.58C12.9133 608.345 12.708 608.023 12.708 607.612V605.324C12.708 605.119 12.7813 604.987 12.928 604.928C13.0453 604.84 13.192 604.84 13.368 604.928L26.172 612.276L40.34 604.62C40.516 604.503 40.6773 604.488 40.824 604.576C40.9413 604.635 41 604.767 41 604.972V607.304C41 607.715 40.8093 607.993 40.428 608.14L28.636 614.432V614.608L40.428 620.856C40.8093 621.061 41 621.355 41 621.736ZM38.184 593.591V589.983C38.184 587.519 36.908 586.287 34.356 586.287H19.352C16.8 586.287 15.524 587.519 15.524 589.983V593.591C15.524 596.025 16.8 597.243 19.352 597.243H34.356C36.908 597.243 38.184 596.025 38.184 593.591ZM41 589.587V593.987C41 595.981 40.428 597.565 39.284 598.739C38.14 599.883 36.5413 600.455 34.488 600.455H19.22C17.196 600.455 15.612 599.883 14.468 598.739C13.2947 597.565 12.708 595.981 12.708 593.987V589.587C12.708 587.592 13.2947 586.023 14.468 584.879C15.612 583.705 17.196 583.119 19.22 583.119H34.488C36.5413 583.119 38.14 583.705 39.284 584.879C40.428 586.023 41 587.592 41 589.587ZM25.512 568.135V571.391C25.512 572.623 25.8787 573.43 26.612 573.811C27.316 574.193 27.668 574.574 27.668 574.955V576.979C27.668 577.39 27.4627 577.595 27.052 577.595H13.324C12.9133 577.595 12.708 577.39 12.708 576.979L12.708 562.415C12.708 561.975 12.9133 561.755 13.324 561.755H15.084C15.4947 561.755 15.7 561.975 15.7 562.415L15.7 574.383H25.072C23.6053 573.826 22.872 572.579 22.872 570.643V567.475C22.872 565.481 23.4147 563.941 24.5 562.855C25.5853 561.741 27.14 561.183 29.164 561.183H34.488C36.5413 561.183 38.14 561.755 39.284 562.899C40.428 564.043 41 565.627 41 567.651V571.259C41 573.283 40.428 574.882 39.284 576.055C38.14 577.199 36.5413 577.771 34.488 577.771H33.124C32.684 577.771 32.464 577.566 32.464 577.155V575.175C32.464 574.765 32.684 574.559 33.124 574.559H34.444C36.996 574.559 38.272 573.342 38.272 570.907V568.047C38.272 565.554 36.996 564.307 34.444 564.307H29.56C28.1813 564.307 27.1693 564.615 26.524 565.231C25.8493 565.847 25.512 566.815 25.512 568.135ZM41 555.012V557.212C41 557.593 40.7947 557.725 40.384 557.608L13.324 549.38C12.9133 549.263 12.708 548.984 12.708 548.544V545.376C12.708 544.936 12.9133 544.657 13.324 544.54L40.384 536.312C40.7947 536.195 41 536.327 41 536.708V538.952C41 539.275 40.7947 539.48 40.384 539.568L33.96 541.636V552.284L40.384 554.352C40.7947 554.469 41 554.689 41 555.012ZM16.008 547.048L31.232 551.58V542.34L16.008 546.872V547.048ZM38.184 525.442V521.834C38.184 519.37 36.908 518.138 34.356 518.138H19.352C16.8 518.138 15.524 519.37 15.524 521.834V525.442C15.524 527.877 16.8 529.094 19.352 529.094H34.356C36.908 529.094 38.184 527.877 38.184 525.442ZM41 521.438V525.838C41 527.833 40.428 529.417 39.284 530.59C38.14 531.734 36.5413 532.306 34.488 532.306H19.22C17.196 532.306 15.612 531.734 14.468 530.59C13.2947 529.417 12.708 527.833 12.708 525.838V521.438C12.708 519.443 13.2947 517.874 14.468 516.73C15.612 515.557 17.196 514.97 19.22 514.97H34.488C36.5413 514.97 38.14 515.557 39.284 516.73C40.428 517.874 41 519.443 41 521.438ZM38.184 502.583V498.975C38.184 496.511 36.908 495.279 34.356 495.279H19.352C16.8 495.279 15.524 496.511 15.524 498.975V502.583C15.524 505.017 16.8 506.235 19.352 506.235H34.356C36.908 506.235 38.184 505.017 38.184 502.583ZM41 498.579V502.979C41 504.973 40.428 506.557 39.284 507.731C38.14 508.875 36.5413 509.447 34.488 509.447H19.22C17.196 509.447 15.612 508.875 14.468 507.731C13.2947 506.557 12.708 504.973 12.708 502.979V498.579C12.708 496.584 13.2947 495.015 14.468 493.871C15.612 492.697 17.196 492.111 19.22 492.111H34.488C36.5413 492.111 38.14 492.697 39.284 493.871C40.428 495.015 41 496.584 41 498.579ZM38.184 479.723V476.115C38.184 473.651 36.908 472.419 34.356 472.419H19.352C16.8 472.419 15.524 473.651 15.524 476.115V479.723C15.524 482.158 16.8 483.375 19.352 483.375H34.356C36.908 483.375 38.184 482.158 38.184 479.723ZM41 475.719V480.119C41 482.114 40.428 483.698 39.284 484.871C38.14 486.015 36.5413 486.587 34.488 486.587H19.22C17.196 486.587 15.612 486.015 14.468 484.871C13.2947 483.698 12.708 482.114 12.708 480.119V475.719C12.708 473.725 13.2947 472.155 14.468 471.011C15.612 469.838 17.196 469.251 19.22 469.251H34.488C36.5413 469.251 38.14 469.838 39.284 471.011C40.428 472.155 41 473.725 41 475.719ZM38.184 456.864V453.256C38.184 450.792 36.908 449.56 34.356 449.56H19.352C16.8 449.56 15.524 450.792 15.524 453.256V456.864C15.524 459.299 16.8 460.516 19.352 460.516H34.356C36.908 460.516 38.184 459.299 38.184 456.864ZM41 452.86V457.26C41 459.255 40.428 460.839 39.284 462.012C38.14 463.156 36.5413 463.728 34.488 463.728H19.22C17.196 463.728 15.612 463.156 14.468 462.012C13.2947 460.839 12.708 459.255 12.708 457.26V452.86C12.708 450.865 13.2947 449.296 14.468 448.152C15.612 446.979 17.196 446.392 19.22 446.392H34.488C36.5413 446.392 38.14 446.979 39.284 448.152C40.428 449.296 41 450.865 41 452.86ZM38.184 434.005V430.397C38.184 427.933 36.908 426.701 34.356 426.701H19.352C16.8 426.701 15.524 427.933 15.524 430.397V434.005C15.524 436.439 16.8 437.657 19.352 437.657H34.356C36.908 437.657 38.184 436.439 38.184 434.005ZM41 430.001V434.401C41 436.395 40.428 437.979 39.284 439.153C38.14 440.297 36.5413 440.869 34.488 440.869H19.22C17.196 440.869 15.612 440.297 14.468 439.153C13.2947 437.979 12.708 436.395 12.708 434.401V430.001C12.708 428.006 13.2947 426.437 14.468 425.293C15.612 424.119 17.196 423.533 19.22 423.533H34.488C36.5413 423.533 38.14 424.119 39.284 425.293C40.428 426.437 41 428.006 41 430.001ZM28.284 409.429V418.405C28.284 418.816 28.0787 419.021 27.668 419.021H26.216C25.8053 419.021 25.6 418.816 25.6 418.405V409.429C25.6 409.019 25.8053 408.813 26.216 408.813H27.668C28.0787 408.813 28.284 409.019 28.284 409.429ZM41 392.246V397.526C41 399.55 40.428 401.149 39.284 402.322C38.14 403.466 36.5413 404.038 34.488 404.038H19.22C17.1667 404.038 15.568 403.466 14.424 402.322C13.28 401.149 12.708 399.55 12.708 397.526L12.708 392.246C12.708 390.222 13.28 388.638 14.424 387.494C15.568 386.321 17.1667 385.734 19.22 385.734H21.376C21.7867 385.734 21.992 385.94 21.992 386.35V388.33C21.992 388.741 21.7867 388.946 21.376 388.946H19.352C16.8 388.946 15.524 390.178 15.524 392.642L15.524 397.174C15.524 399.609 16.8 400.826 19.352 400.826H34.356C36.908 400.826 38.184 399.609 38.184 397.174V392.642C38.184 390.178 36.908 388.946 34.356 388.946H32.332C31.9213 388.946 31.716 388.741 31.716 388.33V386.35C31.716 385.94 31.9213 385.734 32.332 385.734H34.488C36.5413 385.734 38.14 386.321 39.284 387.494C40.428 388.638 41 390.222 41 392.246ZM41 379.178L41 381.466C41 381.671 40.9413 381.818 40.824 381.906C40.6773 381.964 40.516 381.95 40.34 381.862L26.216 374.162L13.368 381.466C13.192 381.583 13.0453 381.598 12.928 381.51C12.7813 381.422 12.708 381.275 12.708 381.07V378.87C12.708 378.4 12.9133 378.078 13.324 377.902L24.148 372.006V371.83L13.324 366.022C12.9133 365.787 12.708 365.464 12.708 365.054V362.766C12.708 362.56 12.7813 362.428 12.928 362.37C13.0453 362.282 13.192 362.282 13.368 362.37L26.172 369.718L40.34 362.062C40.516 361.944 40.6773 361.93 40.824 362.018C40.9413 362.076 41 362.208 41 362.414V364.746C41 365.156 40.8093 365.435 40.428 365.582L28.636 371.874V372.05L40.428 378.298C40.8093 378.503 41 378.796 41 379.178ZM18.78 359.216H17.02C16.58 359.216 16.2573 359.04 16.052 358.688L13.104 353.584C12.84 353.115 12.708 352.733 12.708 352.44V350.592C12.708 350.181 12.9133 349.976 13.324 349.976H40.384C40.7947 349.976 41 350.181 41 350.592V352.572C41 352.983 40.7947 353.188 40.384 353.188H16.14L19.132 358.424C19.4253 358.952 19.308 359.216 18.78 359.216ZM27.184 337.292V330.208H19.352C16.8 330.208 15.524 331.44 15.524 333.904L15.524 337.292C15.524 339.727 16.8 340.944 19.352 340.944H23.4C25.9227 340.944 27.184 339.727 27.184 337.292ZM41 333.508V342.176C41 342.616 40.7947 342.836 40.384 342.836H38.756C38.3747 342.836 38.184 342.616 38.184 342.176V333.904C38.184 331.44 36.908 330.208 34.356 330.208H30V337.688C30 339.683 29.428 341.267 28.284 342.44C27.14 343.584 25.556 344.156 23.532 344.156H19.22C17.196 344.156 15.612 343.584 14.468 342.44C13.2947 341.267 12.708 339.683 12.708 337.688L12.708 333.508C12.708 331.484 13.2947 329.9 14.468 328.756C15.612 327.612 17.196 327.04 19.22 327.04H34.488C36.5413 327.04 38.14 327.612 39.284 328.756C40.428 329.9 41 331.484 41 333.508ZM41 320.445V322.645C41 323.027 40.7947 323.159 40.384 323.041L13.324 314.813C12.9133 314.696 12.708 314.417 12.708 313.977V310.809C12.708 310.369 12.9133 310.091 13.324 309.973L40.384 301.745C40.7947 301.628 41 301.76 41 302.141V304.385C41 304.708 40.7947 304.913 40.384 305.001L33.96 307.069V317.717L40.384 319.785C40.7947 319.903 41 320.123 41 320.445ZM16.008 312.481L31.232 317.013V307.773L16.008 312.305V312.481ZM38.184 290.876V287.268C38.184 284.804 36.908 283.572 34.356 283.572H19.352C16.8 283.572 15.524 284.804 15.524 287.268V290.876C15.524 293.31 16.8 294.528 19.352 294.528H34.356C36.908 294.528 38.184 293.31 38.184 290.876ZM41 286.872V291.272C41 293.266 40.428 294.85 39.284 296.024C38.14 297.168 36.5413 297.74 34.488 297.74H19.22C17.196 297.74 15.612 297.168 14.468 296.024C13.2947 294.85 12.708 293.266 12.708 291.272V286.872C12.708 284.877 13.2947 283.308 14.468 282.164C15.612 280.99 17.196 280.404 19.22 280.404H34.488C36.5413 280.404 38.14 280.99 39.284 282.164C40.428 283.308 41 284.877 41 286.872ZM38.184 268.016V264.408C38.184 261.944 36.908 260.712 34.356 260.712H19.352C16.8 260.712 15.524 261.944 15.524 264.408V268.016C15.524 270.451 16.8 271.668 19.352 271.668H34.356C36.908 271.668 38.184 270.451 38.184 268.016ZM41 264.012V268.412C41 270.407 40.428 271.991 39.284 273.164C38.14 274.308 36.5413 274.88 34.488 274.88H19.22C17.196 274.88 15.612 274.308 14.468 273.164C13.2947 271.991 12.708 270.407 12.708 268.412V264.012C12.708 262.018 13.2947 260.448 14.468 259.304C15.612 258.131 17.196 257.544 19.22 257.544H34.488C36.5413 257.544 38.14 258.131 39.284 259.304C40.428 260.448 41 262.018 41 264.012ZM38.184 245.157V241.549C38.184 239.085 36.908 237.853 34.356 237.853H19.352C16.8 237.853 15.524 239.085 15.524 241.549V245.157C15.524 247.592 16.8 248.809 19.352 248.809H34.356C36.908 248.809 38.184 247.592 38.184 245.157ZM41 241.153V245.553C41 247.548 40.428 249.132 39.284 250.305C38.14 251.449 36.5413 252.021 34.488 252.021H19.22C17.196 252.021 15.612 251.449 14.468 250.305C13.2947 249.132 12.708 247.548 12.708 245.553V241.153C12.708 239.158 13.2947 237.589 14.468 236.445C15.612 235.272 17.196 234.685 19.22 234.685H34.488C36.5413 234.685 38.14 235.272 39.284 236.445C40.428 237.589 41 239.158 41 241.153ZM38.184 222.298V218.69C38.184 216.226 36.908 214.994 34.356 214.994H19.352C16.8 214.994 15.524 216.226 15.524 218.69L15.524 222.298C15.524 224.732 16.8 225.95 19.352 225.95H34.356C36.908 225.95 38.184 224.732 38.184 222.298ZM41 218.294V222.694C41 224.688 40.428 226.272 39.284 227.446C38.14 228.59 36.5413 229.162 34.488 229.162H19.22C17.196 229.162 15.612 228.59 14.468 227.446C13.2947 226.272 12.708 224.688 12.708 222.694L12.708 218.294C12.708 216.299 13.2947 214.73 14.468 213.586C15.612 212.412 17.196 211.826 19.22 211.826H34.488C36.5413 211.826 38.14 212.412 39.284 213.586C40.428 214.73 41 216.299 41 218.294ZM38.184 199.438V195.83C38.184 193.366 36.908 192.134 34.356 192.134H19.352C16.8 192.134 15.524 193.366 15.524 195.83V199.438C15.524 201.873 16.8 203.09 19.352 203.09H34.356C36.908 203.09 38.184 201.873 38.184 199.438ZM41 195.434V199.834C41 201.829 40.428 203.413 39.284 204.586C38.14 205.73 36.5413 206.302 34.488 206.302H19.22C17.196 206.302 15.612 205.73 14.468 204.586C13.2947 203.413 12.708 201.829 12.708 199.834V195.434C12.708 193.44 13.2947 191.87 14.468 190.726C15.612 189.553 17.196 188.966 19.22 188.966H34.488C36.5413 188.966 38.14 189.553 39.284 190.726C40.428 191.87 41 193.44 41 195.434ZM15.128 165.671V165.803C15.128 167.152 15.5533 168.194 16.404 168.927C17.2547 169.66 18.472 170.027 20.056 170.027H38.14C39.724 170.027 40.9413 169.66 41.792 168.927C42.6427 168.194 43.068 167.138 43.068 165.759V165.671C43.068 165.26 43.2587 165.055 43.64 165.055H45.004C45.3267 165.055 45.488 165.26 45.488 165.671V165.803C45.488 167.944 44.8427 169.631 43.552 170.863C42.2613 172.095 40.3693 172.711 37.876 172.711H20.32C17.8267 172.711 15.9347 172.095 14.644 170.863C13.3533 169.631 12.708 167.944 12.708 165.803V165.627C12.708 165.246 12.8693 165.055 13.192 165.055H14.556C14.9373 165.055 15.128 165.26 15.128 165.671ZM40.384 159.773H36.424C34.4587 159.773 32.8453 158.952 31.584 157.309L24.896 148.817C23.7813 147.351 22.4027 146.617 20.76 146.617H19.176C16.6827 146.617 15.436 147.879 15.436 150.401V153.085C15.436 155.549 16.6827 156.781 19.176 156.781H20.98C21.42 156.781 21.64 156.987 21.64 157.397V159.377C21.64 159.759 21.42 159.949 20.98 159.949H19.132C17.108 159.949 15.5387 159.377 14.424 158.233C13.28 157.089 12.708 155.505 12.708 153.481V149.961C12.708 147.937 13.28 146.353 14.424 145.209C15.5387 144.065 17.108 143.493 19.132 143.493H20.936C23.224 143.493 25.0867 144.403 26.524 146.221L33.344 154.845C34.1067 155.813 35.0307 156.297 36.116 156.297H38.14L38.14 144.021C38.14 143.611 38.3453 143.405 38.756 143.405H40.384C40.7947 143.405 41 143.611 41 144.021L41 159.157C41 159.568 40.7947 159.773 40.384 159.773ZM25.512 128.823V132.079C25.512 133.311 25.8787 134.117 26.612 134.499C27.316 134.88 27.668 135.261 27.668 135.643V137.667C27.668 138.077 27.4627 138.283 27.052 138.283H13.324C12.9133 138.283 12.708 138.077 12.708 137.667L12.708 123.103C12.708 122.663 12.9133 122.443 13.324 122.443H15.084C15.4947 122.443 15.7 122.663 15.7 123.103L15.7 135.071H25.072C23.6053 134.513 22.872 133.267 22.872 131.331V128.163C22.872 126.168 23.4147 124.628 24.5 123.543C25.5853 122.428 27.14 121.871 29.164 121.871H34.488C36.5413 121.871 38.14 122.443 39.284 123.587C40.428 124.731 41 126.315 41 128.339V131.947C41 133.971 40.428 135.569 39.284 136.743C38.14 137.887 36.5413 138.459 34.488 138.459H33.124C32.684 138.459 32.464 138.253 32.464 137.843V135.863C32.464 135.452 32.684 135.247 33.124 135.247H34.444C36.996 135.247 38.272 134.029 38.272 131.595V128.735C38.272 126.241 36.996 124.995 34.444 124.995H29.56C28.1813 124.995 27.1693 125.303 26.524 125.919C25.8493 126.535 25.512 127.503 25.512 128.823ZM38.184 110.155V106.767C38.184 104.303 36.908 103.071 34.356 103.071H30.484C27.932 103.071 26.656 104.303 26.656 106.767V113.851H34.356C36.908 113.851 38.184 112.619 38.184 110.155ZM41 106.371V110.551C41 112.575 40.428 114.174 39.284 115.347C38.1107 116.491 36.512 117.063 34.488 117.063H19.22C17.196 117.063 15.612 116.491 14.468 115.347C13.2947 114.174 12.708 112.575 12.708 110.551L12.708 102.015C12.708 101.605 12.9133 101.399 13.324 101.399H14.952C15.3333 101.399 15.524 101.605 15.524 102.015L15.524 110.155C15.524 112.619 16.8 113.851 19.352 113.851H23.84V106.371C23.84 104.347 24.412 102.763 25.556 101.619C26.7 100.475 28.2987 99.9033 30.352 99.9033H34.488C36.5413 99.9033 38.14 100.475 39.284 101.619C40.428 102.763 41 104.347 41 106.371ZM12.708 62.7766V59.2126C12.708 58.802 12.9133 58.5966 13.324 58.5966H40.384C40.7947 58.5966 41 58.802 41 59.2126V61.1486C41 61.5593 40.7947 61.7646 40.384 61.7646H17.02V61.9406L34.268 68.7606C34.6493 68.9366 34.84 69.2006 34.84 69.5526V71.6646C34.84 72.046 34.6493 72.2953 34.268 72.4126L16.976 79.3646V79.5406H40.384C40.7947 79.5406 41 79.7313 41 80.1126V82.0486C41 82.4593 40.7947 82.6646 40.384 82.6646H13.324C12.9133 82.6646 12.708 82.4593 12.708 82.0486V78.4846C12.708 78.2206 12.8253 78.0446 13.06 77.9566L31.276 70.7406V70.5206L13.06 63.3046C12.8253 63.246 12.708 63.07 12.708 62.7766ZM13.324 48.2092H40.384C40.7947 48.2092 41 48.4145 41 48.8252V50.8052C41 51.2159 40.7947 51.4212 40.384 51.4212H13.324C12.9133 51.4212 12.708 51.2159 12.708 50.8052V48.8252C12.708 48.4145 12.9133 48.2092 13.324 48.2092ZM38.272 37.3759L38.272 30.1599C38.272 27.6372 37.0253 26.3759 34.532 26.3759H31.672C29.1787 26.3759 27.932 27.7252 27.932 30.4239V37.3759C27.932 37.6692 28.064 37.8159 28.328 37.8159H37.832C38.1253 37.8159 38.272 37.6692 38.272 37.3759ZM25.248 37.3759V30.5999C25.248 28.0186 24.0013 26.7279 21.508 26.7279H19.176C16.6827 26.7279 15.436 27.9746 15.436 30.4679V37.3759C15.436 37.6692 15.5827 37.8159 15.876 37.8159H24.852C25.116 37.8159 25.248 37.6692 25.248 37.3759ZM40.384 41.0279H13.324C12.9133 41.0279 12.708 40.8226 12.708 40.4119V30.0719C12.708 28.0479 13.28 26.4639 14.424 25.3199C15.5387 24.1759 17.108 23.6039 19.132 23.6039H21.552C24.1627 23.6039 25.8493 24.8359 26.612 27.2999C26.7 26.1852 27.1987 25.2319 28.108 24.4399C28.988 23.6479 30.1613 23.2519 31.628 23.2519H34.576C36.6 23.2519 38.184 23.8386 39.328 25.0119C40.4427 26.1559 41 27.7399 41 29.7639L41 40.4119C41 40.8226 40.7947 41.0279 40.384 41.0279ZM45.004 18.0235H43.64C43.2587 18.0235 43.068 17.8328 43.068 17.4515V17.3195C43.068 15.9995 42.6427 14.9728 41.792 14.2395C40.9413 13.4768 39.724 13.0955 38.14 13.0955H20.056C18.472 13.0955 17.2547 13.4768 16.404 14.2395C15.5533 14.9728 15.128 15.9995 15.128 17.3195V17.4515C15.128 17.8328 14.9373 18.0235 14.556 18.0235H13.192C12.8693 18.0235 12.708 17.8328 12.708 17.4515V17.3195C12.708 15.1781 13.3533 13.4915 14.644 12.2595C15.9347 10.9981 17.8267 10.3675 20.32 10.3675H37.876C40.3693 10.3675 42.2613 10.9981 43.552 12.2595C44.8427 13.4915 45.488 15.1781 45.488 17.3195V17.4515C45.488 17.8328 45.3267 18.0235 45.004 18.0235Z" fill="#8B3430"/>
</svg>
