<svg width="53" height="110" viewBox="0 0 53 110" fill="none" xmlns="http://www.w3.org/2000/svg">
<path d="M22.624 110L8.19043 85H37.0576L22.624 110ZM11.0723 44.4238C11.5413 44.4239 11.7763 44.648 11.7764 45.0957V58.8877H14.1436C14.4421 58.8877 14.5917 59.0266 14.5918 59.3037V60.4561C14.5918 60.776 14.4422 60.9355 14.1436 60.9355H11.7764V64.5518C11.7764 64.8504 11.6267 65 11.3281 65H9.98438C9.70704 65 9.56836 64.8504 9.56836 64.5518V60.9355H0.671875C0.223974 60.9355 0 60.7116 0 60.2637V59.4961C0 59.1335 0.074395 58.8134 0.223633 58.5361L8.03223 45.0645C8.22423 44.6378 8.54419 44.4238 8.99219 44.4238H11.0723ZM25.3877 44.4238C26.8383 44.4238 27.9795 44.8508 28.8115 45.7041C29.6649 46.5361 30.0918 47.6882 30.0918 49.1602V60.2637C30.0918 61.757 29.6649 62.92 28.8115 63.752C27.9795 64.5839 26.8383 65 25.3877 65H22.1875C20.737 64.9999 19.5847 64.5839 18.7314 63.752C17.8996 62.92 17.4834 61.7569 17.4834 60.2637V49.1602C17.4834 47.6883 17.8996 46.5361 18.7314 45.7041C19.5847 44.8508 20.737 44.4239 22.1875 44.4238H25.3877ZM36.0283 60.2637C36.3055 60.2637 36.4442 60.4026 36.4443 60.6797V64.5518C36.4443 64.8504 36.3057 65 36.0283 65H34.3965C34.1193 64.9999 33.9805 64.8503 33.9805 64.5518V60.6797C33.9806 60.4027 34.1194 60.2638 34.3965 60.2637H36.0283ZM48.2314 44.4238C49.6821 44.4238 50.8233 44.8508 51.6553 45.7041C52.5086 46.5361 52.9355 47.6882 52.9355 49.1602V60.2637C52.9355 61.757 52.5086 62.92 51.6553 63.752C50.8233 64.5839 49.6821 65 48.2314 65H45.0312C43.5807 64.9999 42.4285 64.5839 41.5752 63.752C40.7433 62.92 40.3271 61.7569 40.3271 60.2637V49.1602C40.3271 47.6883 40.7433 46.5361 41.5752 45.7041C42.4285 44.8508 43.5807 44.4239 45.0312 44.4238H48.2314ZM22.4756 46.4717C20.7051 46.4717 19.8194 47.4 19.8193 49.2559V60.168C19.8193 62.0239 20.705 62.9521 22.4756 62.9521H25.0996C26.8916 62.9521 27.7881 62.024 27.7881 60.168V49.2559C27.788 47.4 26.8916 46.4717 25.0996 46.4717H22.4756ZM45.3193 46.4717C43.5488 46.4717 42.6631 47.4 42.6631 49.2559V60.168C42.6631 62.0239 43.5488 62.9521 45.3193 62.9521H47.9434C49.7354 62.9521 50.6318 62.024 50.6318 60.168V49.2559C50.6318 47.4 49.7353 46.4717 47.9434 46.4717H45.3193ZM2.33594 58.8877H9.56836V46.3115L2.33594 58.8877ZM37.0576 25H8.19043L22.624 0L37.0576 25Z" fill="#752A29"/>
</svg>
