<svg width="49" height="84" viewBox="0 0 49 84" fill="none" xmlns="http://www.w3.org/2000/svg">
<path d="M26.7852 68.999L33.9453 68.9951L25.2939 84L16.625 69.0049L23.7852 69.001L23.7842 67.001L26.7842 66.999L26.7852 68.999ZM1.82227 47.6387C2.09206 47.6387 2.23578 47.7649 2.25391 48.0166L4.98145 62.8936H5.14355L8.78809 47.9902C8.84205 47.7564 8.98599 47.6388 9.21973 47.6387H10.8398C11.0738 47.6387 11.2185 47.7562 11.2725 47.9902L14.9707 62.8936H15.1328L17.833 48.0439C17.887 47.774 18.0401 47.6387 18.292 47.6387H19.75C20.038 47.6387 20.1555 47.774 20.1016 48.0439L16.6182 64.6221C16.5642 64.8739 16.4203 64.9999 16.1865 65H14.1074C13.8555 65 13.7025 64.874 13.6484 64.6221L10.1113 50.123H10.0029L6.43945 64.6221C6.38545 64.8741 6.24083 65 6.00684 65H3.92773C3.676 64.9999 3.52272 64.8739 3.46875 64.6221L0.0126953 48.0166C-0.0410535 47.7649 0.0764406 47.6387 0.364258 47.6387H1.82227ZM29.0615 47.6387C29.3314 47.6387 29.5032 47.7648 29.5752 48.0166L34.624 64.6221C34.696 64.874 34.6148 65 34.3809 65H33.0039C32.8059 65 32.68 64.874 32.626 64.6221L31.3564 60.6797H24.8232L23.5537 64.6221C23.4817 64.874 23.3464 65 23.1484 65H21.7988C21.5649 65 21.4837 64.874 21.5557 64.6221L26.6045 48.0166C26.6765 47.7648 26.8483 47.6387 27.1182 47.6387H29.0615ZM44.3174 47.6387C45.5412 47.6387 46.5134 47.999 47.2334 48.7188C47.9534 49.4207 48.3134 50.3929 48.3135 51.6348V52.3096C48.3135 52.5796 48.1969 52.7148 47.9629 52.7148H46.7207C46.4868 52.7148 46.3701 52.5795 46.3701 52.3096V51.8242C46.3701 50.1862 45.5688 49.3672 43.9668 49.3672H41.6719C40.07 49.3672 39.2687 50.2219 39.2686 51.9316V53.0117C39.2686 53.9297 39.8721 54.5603 41.0781 54.9023C41.6179 55.0463 42.2117 55.1807 42.8594 55.3066C43.5073 55.4146 44.1558 55.5677 44.8037 55.7656C45.4697 55.9456 46.0733 56.1798 46.6133 56.4678C47.1532 56.7378 47.5852 57.1614 47.9092 57.7373C48.251 58.2952 48.4219 58.9792 48.4219 59.7891V61.0039C48.4219 62.2459 48.0618 63.2273 47.3418 63.9473C46.6218 64.6492 45.6497 65 44.4258 65H41.3213C40.0975 65 39.1252 64.649 38.4053 63.9473C37.6853 63.2273 37.3252 62.2459 37.3252 61.0039V60.1396C37.3253 59.8879 37.4512 59.7617 37.7031 59.7617H38.918C39.1698 59.7618 39.2958 59.8879 39.2959 60.1396V60.8418C39.2959 62.4618 40.0972 63.2725 41.6992 63.2725H44.0752C45.6769 63.2723 46.4775 62.4439 46.4775 60.7881V59.8701C46.4775 58.5741 45.4066 57.728 43.2646 57.332C42.3647 57.17 41.4644 56.9806 40.5645 56.7646C39.6647 56.5486 38.8994 56.1353 38.2695 55.5234C37.6395 54.8934 37.3252 54.038 37.3252 52.958V51.6348C37.3252 50.3929 37.676 49.4207 38.3779 48.7188C39.0979 47.9989 40.0794 47.6387 41.3213 47.6387H44.3174ZM25.2549 59.0059H30.9248L28.1436 49.6641H28.0361L25.2549 59.0059ZM47.2842 43H2.28418V34H47.2842V43ZM33.9443 15H26.7842V29H23.7842V15H16.624L25.2842 0L33.9443 15Z" fill="#542225"/>
</svg>
